<?xml version="1.0" encoding="utf-8"?>
<!-- Generator: Adobe Illustrator 27.0.0, SVG Export Plug-In . SVG Version: 6.00 Build 0)  -->
<svg version="1.1" id="Layer_1" xmlns="http://www.w3.org/2000/svg" xmlns:xlink="http://www.w3.org/1999/xlink" x="0px" y="0px"
	 viewBox="0 0 1599.9 435" style="enable-background:new 0 0 1599.9 435;" xml:space="preserve">
<style type="text/css">
	.st0{fill-rule:evenodd;clip-rule:evenodd;fill:#3E9FC4;}
	.st1{fill-rule:evenodd;clip-rule:evenodd;fill:#2D7FA6;}
	.st2{fill-rule:evenodd;clip-rule:evenodd;fill:#195F89;}
	.st3{fill:#2D7FA6;}
	.st4{fill:#236F98;}
	.st5{fill:#3E9FC4;}
	.st6{fill:#49B0D2;}
</style>
<g>
	<path class="st0" d="M0,440.9h1599.8V249.3c-53.8,0-107.6,2.6-161.3,0c-117.2-5.6-233.6-25.6-351-24.7
		c-80.6,0.6-158.9,28.3-239.4,29.1c-136.9,1.2-273.1-22.6-410-23.2c-156.4-0.7-188.4,39.1-438.1,8.7L0,440.9L0,440.9z"/>
	<path class="st1" d="M277.9,279.4c-1.7-6.4-2.6-14-9.9-26.1c-6.7-11.4-12-9.5-20.6-22.5c-8-12.2-9.5-19.5-8.4-30.1
		c0.7-6.7,3.1-12.6,4.8-18.9c1.7-6.3,2.4-13.4-0.2-20c-2.4-6-7.4-11.2-8.2-17.6c-1.7-13.1,14.9-19.5,14.1-32.5
		c-0.3-6-4.2-11.2-6.4-16.8c-2.7-7.5-2.3-15.5-0.3-22.4s5.6-13.1,9.1-19.2c-2.2,7.1-1.3,15.6,1.5,23.2c2.8,7.6,7.5,14.5,12.7,20.7
		c3.5,4.1,7.2,7.9,9.4,12.9c5,11.4-0.3,23.4-1,35.2c-0.1,2.5,0,5.3,1.2,7.6c1.9,3.5,5.4,5.3,8.3,7.9c5.1,4.4,8,11.7,7.6,18.2
		c-0.6,8.4-6.2,14.7-7,23c-0.4,3.7,0.5,8.1,3.1,10.9c2.1,2.2,5,3.1,7.1,5.4c4,4.2,3.5,10.8,3.1,16.4c-1.9,20.4-12.7,24.5,1.7,54.6
		L277.9,279.4L277.9,279.4L277.9,279.4z M0,257.2v183.6h1599.8V135.5L1415,255.8c-32.4,21.1-89.4,5.2-143.8-2.6
		c1.4-1,2.9-1.9,4.3-2.9c3.6-2.4,7-5,10-7.9c0.4-0.4,0.7-0.7,1.1-1.1c3.2,3.2,9.3,3.2,13.5,2.4c0.9-0.2,1.8-2.1,0.4-1.8
		c-2.3,0.5-5.2,0.6-7.8,0c4.8-0.1,9.4-2.7,12.1-6.7c0.8-1.3-0.8-1.4-1.4-0.4c-2.3,3.6-6.3,5.4-10.5,5.2c3.4-1.1,6.1-4,7.9-7
		c0.3-0.4,0.1-0.8-0.4-0.9c-0.6-0.1-1.1,0.5-1.3,0.9c-1.9,3.2-5.1,5.9-9,5.6c3.5-1.4,6.1-4.2,7.1-7.7c0.4-1.2-1.6-0.2-1.9,0.5
		c-0.7,2.6-2.7,4.5-5.2,5.5c4.2-5.9,6.6-12.6,8-19.6c4.4,0.7,8.8-0.3,12.5-2.7c1.1-0.6,0.8-2.1-0.6-1.3c-2.2,1.4-4.7,2.2-7.3,2.3
		c3.3-1.4,6.1-3.7,7.5-7.1c0.5-1.4-1.4-0.9-1.7,0c-1.3,3.4-4.4,5.3-8,6.2c2.8-2.4,4.5-5.8,4.5-9.5c0-1.1-1.9,0.1-1.9,1
		c0.1,3.3-1.5,6.4-4.4,8.2c0.9-5.4,1.2-10.9,1.5-16.3c4.3,0.4,8.3-1.4,10.9-4.7c1-1.2-0.7-1.3-1.4-0.4c-1.5,1.8-3.8,2.9-6.1,3.2
		c2-1.5,3.4-3.6,3.7-6.1c0.2-1.3-1.8-0.3-1.9,0.5c-0.4,2.5-1.9,4.4-4.2,5.3c1.7-2.9,2.3-6.2,1.6-9.5c-0.3-1.1-2.1,0.2-1.9,1
		c0.5,2.3,0.3,4.6-0.5,6.7c-0.1-0.4-0.1-0.7-0.2-1c-0.2-1.4-0.4-2.8-0.6-4.2c-0.2-1.1-2,0.1-1.9,1c0.2,1.3,0.4,2.6,0.6,3.8
		c0,0.2,0,0.4,0.1,0.6c-1.3-1.8-1.7-3.9-1.5-6.2c0.1-1.1-1.9,0.2-1.9,1c-0.1,1.9,0.1,3.8,0.9,5.4c-1.6-1.7-2.3-4-1.6-6.4
		c0.4-1.2-1.7-0.3-1.9,0.5c-0.8,2.8,0,5.6,1.9,7.6c-1.5-0.7-2.6-2-3.3-3.6c-0.3-0.9-2.1,0.5-1.8,1.3c1.4,3.5,5.2,5.4,9.1,4.6
		l0.2,0.1c-0.2,4.6-0.5,9.2-1.1,13.8c-0.6-1.7-0.8-3.5-0.6-5.3c0-0.6-0.7-0.5-1-0.3c-0.5,0.3-0.9,0.8-0.9,1.3
		c-0.2,1.7,0,3.3,0.4,4.9c-1.7-2.5-1.8-6.2-0.9-8.8c0.2-0.5-0.3-0.7-0.7-0.6c-0.5,0.1-1,0.7-1.2,1.2c-0.8,2.3-0.9,5.5,0.1,8
		c-1.4-2.1-1.8-5.1-1.6-7.5c0.1-1.1-1.9,0.2-1.9,1c-0.2,2.7,0.3,5.9,1.9,8.2c-1.5-1.2-2.6-2.8-3.3-4.3c-0.4-0.9-2.2,0.5-1.8,1.3
		c1.9,4,5.9,7.4,10.7,6c-0.4,2.3-1,4.5-1.6,6.7c-1.4,4.5-3.5,8.6-6.2,12.3c0.2-3.1,0.6-6.2,1.2-9.3c0.3-1.3-1.8-0.3-1.9,0.5
		c-0.4,2.1-0.7,4.1-0.9,6.2c-0.2-2.2,0-4.5,0.3-6.8c0.1-1.1-1.8,0.2-1.9,1c-0.3,3-0.6,6,0,8.8c-2.5-2.6-2.6-7.5-1.8-10.5
		c0.3-1.3-1.7-0.3-1.9,0.5c-1.1,4.1-0.6,11,4.1,13.1c-1.4,1.5-2.9,3-4.6,4.3c-3.7,3.1-8,5.5-11.8,8.4c-1.1-0.2-2.3-0.3-3.4-0.5
		c0.6-1.2,1.4-2.3,2.4-3.4c0.9-1-0.1-1.9-1.1-0.9c-1.1,1.2-2.2,2.6-3,4l-1-0.1c0.3-1.7,1-3.5,1.7-5.1c0.1-0.2,0.1-0.4,0.1-0.5
		c5.2-0.8,9.9-3.7,13-8.2l0,0c0.8-1.3-0.3-3-1.4-1.4c-3.5,5-9.5,7.4-15.5,6.8c5.3-2.6,9.7-6.4,13-11.1l0,0c0.9-1.3-0.2-2.9-1.4-1.2
		c-3.7,5.2-9,9-15.2,11.2l0.1-0.1c2.7-3.3,4.8-7,6.5-10.9c1.5-3.5,2.1-7.2,2.9-10.9c4.1,4,12,3.3,16.7,0.8c1-0.5,1.3-3.3,0-2.7
		c-3,1.6-7.5,2.4-11.1,1.5c4.1-0.3,7.9-1.9,11.1-4.5c0.9-0.7,0.9-3.5-0.5-2.4c-3.7,3-8.4,4.5-13.2,4.2c4.4-2,7.8-5.7,9.7-10.1
		c0.7-1.6-1-2.2-1.8-0.6c-1.7,4.1-5.4,7.2-9.8,8.7c1.6-5.2,4.9-9.5,7.8-14.1c3-4.6,5.7-9.3,7.8-14.3c0.2-0.6,0.5-1.2,0.7-1.8
		c5.6,2.3,13-0.5,17.6-3.5c1-0.6,1.1-3.4-0.5-2.4c-2.5,1.7-6,3.2-9.4,3.7c5.8-2.5,9.9-7.7,11-13.8c0.3-1.9-1.7-1.3-2,0.2
		c-0.9,5.4-4.7,9.5-9.8,11.3c3.5-3,5.2-7.7,5.7-12.2c0.1-0.6-0.3-1.1-1-0.9c-0.8,0.2-1,1.2-1.1,1.7c-0.6,4.7-2.9,9.5-7.8,11.1
		c3.4-3.3,5-8,4.4-12.6c-0.2-1.7-2.1,0.5-2,1.5c0.5,3.5-0.8,6.7-3.3,9.2c1.9-9.2,1.1-18.4-1-27.5c5.6-1.2,10.4-4.5,13.6-9.1
		c0.9-1.3-0.2-2.9-1.4-1.3c-1.9,2.7-4.5,4.8-7.5,6.2c3.3-3.2,5.4-7.4,5.1-12.1c-0.1-1.9-2.2-0.4-2.1,0.8c0.3,4.7-2.5,8.5-6.3,11.2
		c2.1-4.3,2.3-9.1,0.3-13.6c-0.6-1.4-2.3,1.1-1.8,2.1c1.9,4,1.6,8.4-0.8,12c-1.9-6.9-4.4-13.7-7-20.4c5.4-1.6,9.2-5.7,10.6-10.8
		c0.6-1.9-1.6-1.2-2,0.2c-0.8,2.9-2.9,5.3-5.6,6.8c1.6-2.7,2.1-5.9,1.2-9.1c-0.5-1.7-2.3,0.5-2,1.5c0.9,3.1,0.1,6.2-2.2,8.4
		c0.5-4.3-0.6-8.5-3.2-12.2c-0.9-1.2-2.4,1.2-1.8,2.1c1.8,2.5,2.9,5.4,3,8.3c-0.3-0.4-0.5-0.8-0.8-1.2c-1-1.6-2-3.2-3-4.8
		c-0.8-1.2-2.4,1.1-1.8,2.1c1,1.4,1.9,2.9,2.7,4.3c0.1,0.2,0.3,0.5,0.4,0.7c-2.5-1.5-4.1-4-5.1-6.8c-0.4-1.3-2.2,1.1-1.8,2.1
		c0.9,2.3,2.2,4.5,4,6.1c-2.8-1.3-4.9-3.8-5.4-7c-0.2-1.7-2.2,0.5-2,1.5c0.6,3.8,3,6.8,6.4,8.2c-2.2-0.2-4.3-1.1-5.9-2.8
		c-0.9-1-2.3,1.7-1.5,2.5c3.7,3.6,9.2,4,13.5,1.2h0.3c2.2,5.7,4.4,11.4,6.2,17.2c-1.6-1.8-2.8-3.9-3.6-6.1c-0.3-0.7-1.1-0.2-1.4,0.1
		c-0.5,0.5-0.7,1.4-0.4,2c0.7,2.1,1.8,4,3.2,5.7c-3.4-2.2-5.5-6.7-5.8-10.2c-0.1-0.7-0.7-0.7-1.2-0.4c-0.6,0.3-0.9,1.3-0.8,2
		c0.3,3.2,1.9,7,4.5,9.7c-2.9-1.9-4.9-5.3-6-8.2c-0.4-1.3-2.2,1.1-1.8,2.1c1.2,3.4,3.6,7,6.8,9c-2.4-0.7-4.7-2.1-6.3-3.7
		c-1-0.9-2.4,1.7-1.5,2.5c4.4,4,11.1,6.2,16.1,2.2c0.7,2.9,1.3,5.9,1.7,8.9c0.7,6.1,0.5,12-0.8,17.7c-1.5-3.8-2.7-7.8-3.6-11.8
		c-0.4-1.7-2.3,0.5-2,1.5c0.6,2.7,1.4,5.3,2.2,7.9c-1.4-2.6-2.4-5.5-3.4-8.4c-0.4-1.3-2.1,1.1-1.8,2.1c1.2,3.7,2.5,7.5,4.8,10.7
		c-4.4-2-7.2-7.8-7.9-11.9c-0.3-1.7-2.2,0.5-2,1.5c1,5.5,5.3,13.5,12,13.9c-0.9,2.5-1.9,5-3.2,7.4c-4,7.7-10,14.4-12.9,22.5
		c-1.8-3.4-1.4-7.3-0.1-10.8c0-0.1,0.1-0.3,0.1-0.4c0.9-0.5,1.8-1,2.6-1.5c1-0.6,1.1-3.4-0.5-2.4c-2,1.3-4.5,2.5-7.2,3.3
		c0-0.3,0-0.4-0.1-0.6c4.7-2.7,8-7.4,8.9-12.8c0.3-1.9-1.7-1.3-2,0.2c-0.9,5.4-4.7,9.5-9.8,11.3c3.5-3,5.2-7.7,5.7-12.2
		c0.1-0.6-0.3-1.1-1-0.9c-0.8,0.2-1,1.2-1.1,1.7c-0.6,4.7-2.9,9.5-7.8,11.1c3.4-3.3,5-8,4.4-12.6c-0.2-1.7-2.1,0.5-2,1.5
		c0.5,3.5-0.8,6.7-3.3,9.2c1.9-9.2,1.1-18.4-1-27.5c5.6-1.2,10.4-4.5,13.6-9.1c0.9-1.3-0.2-2.9-1.4-1.3c-1.9,2.7-4.5,4.8-7.5,6.2
		c3.3-3.2,5.4-7.4,5.1-12.1c-0.1-1.9-2.2-0.4-2.1,0.8c0.3,4.7-2.5,8.5-6.3,11.2c2.1-4.3,2.3-9.1,0.3-13.6c-0.6-1.4-2.3,1.1-1.8,2.1
		c1.9,4,1.6,8.4-0.8,12c-1.9-6.9-4.4-13.7-7-20.4c5.4-1.6,9.2-5.7,10.6-10.8c0.6-1.9-1.6-1.2-2,0.2c-0.8,2.9-2.9,5.3-5.6,6.8
		c1.6-2.7,2.1-5.9,1.2-9.1c-0.5-1.7-2.3,0.5-2,1.5c0.9,3.1,0.1,6.2-2.2,8.4c0.5-4.3-0.6-8.5-3.2-12.2c-0.9-1.2-2.4,1.2-1.8,2.1
		c1.8,2.5,2.9,5.4,3,8.3c-0.3-0.4-0.5-0.8-0.8-1.2c-1-1.6-2-3.2-3-4.8c-0.8-1.2-2.4,1.1-1.8,2.1c1,1.4,1.9,2.9,2.7,4.3
		c0.1,0.2,0.3,0.5,0.4,0.7c-2.5-1.5-4.1-4-5.1-6.8c-0.4-1.3-2.2,1.1-1.8,2.1c0.9,2.3,2.2,4.5,4,6.1c-2.8-1.3-4.9-3.8-5.4-7
		c-0.2-1.7-2.2,0.5-2,1.5c0.6,3.8,3,6.8,6.3,8.2c-2.2-0.2-4.3-1.1-5.9-2.8c-0.9-1-2.3,1.7-1.5,2.5c3.7,3.6,9.2,4,13.5,1.2h0.3
		c2.2,5.7,4.4,11.4,6.2,17.2c-1.6-1.8-2.8-3.9-3.6-6.1c-0.3-0.7-1.1-0.2-1.4,0.1c-0.5,0.5-0.7,1.4-0.4,2c0.7,2.1,1.8,4,3.2,5.7
		c-3.4-2.2-5.5-6.7-5.8-10.2c-0.1-0.7-0.7-0.7-1.2-0.4c-0.6,0.3-0.9,1.3-0.8,2c0.3,3.2,1.9,7,4.5,9.7c-2.9-1.9-4.9-5.3-6-8.2
		c-0.4-1.3-2.2,1.1-1.8,2.1c1.2,3.4,3.6,7,6.8,9c-2.4-0.7-4.7-2.1-6.3-3.7c-1-0.9-2.4,1.7-1.5,2.5c4.4,4,11.1,6.2,16.1,2.2
		c0.7,2.9,1.3,5.9,1.7,8.9c0.7,6,0.5,12-0.8,17.7c-1.5-3.8-2.7-7.8-3.6-11.8c-0.4-1.7-2.3,0.5-2,1.5c0.6,2.7,1.4,5.3,2.2,7.9
		c-1.4-2.6-2.4-5.5-3.4-8.4c-0.4-1.3-2.1,1.1-1.8,2.1c1.2,3.7,2.5,7.5,4.8,10.7c-4.4-2-7.2-7.8-7.9-11.9c-0.3-1.7-2.2,0.5-2,1.5
		c1,5.5,5.3,13.5,12,13.9c-0.9,2.5-1.9,5-3.2,7.4c-3.7,7-9,13.3-12.1,20.6c-0.2-2.6-0.6-5.1-1.1-7.6c0-0.1-0.1-0.2-0.1-0.3
		c0.1-0.3,0.2-0.7,0.3-1c0.5-1.6-1.1-2.3-1.8-0.6c-1.1,3.2-1.8,6.6-1.2,9.7c-1.8-2.9-2.1-6.7-2-10.1c0-2-2.1-0.4-2.1,0.8
		c-0.1,4.2,0.3,8.7,2.8,12.1c-0.7-0.4-1.4-0.9-1.9-1.4c-0.3-0.9-0.5-1.9-0.7-2.8c-1.2-5.5-1.2-11-1.5-16.6
		c7.4,0.9,11.7-7.9,12.1-15.9c0.1-1.5-1.7-3.9-1.9-1.4c-0.3,5.4-2.6,11-6.6,13c2.9-3.9,4.1-9.5,4.6-14.8c0.2-1.5-1.6-3.9-1.9-1.4
		c-0.4,4.4-1.3,9.1-3.5,12.5c1-4,0.9-8.4,0.3-12.6c-0.4-2.3-2.1-1.7-1.8,0.4c0.7,4.8,0.5,9.8-1.8,13.7c-1.7-10.8-6.6-20.3-9.3-30.7
		c-0.9-3.3-1.6-6.6-2.1-9.9c6.7,0.7,12.2-8.8,14-15.6c0.4-1.3-1.2-4.4-1.7-2.3c-1.3,5-4.9,11.9-9.6,13.7c2.7-3.7,4.5-8.2,6.3-12.7
		c0.5-1.2-0.8-4.6-1.5-2.9c-1.4,3.5-2.8,6.9-4.6,10c1.2-3.2,2.4-6.4,3.4-9.7c0.5-1.3-1.1-4.4-1.7-2.3c-1.5,4.9-3.3,9.7-5.3,14.3
		c-0.4-7.5,0.2-15.1,1.9-22.6c0.8-3.7,1.9-7.4,3-11c4.4,5.9,11.3,4.3,16.3,0c1-0.9,0-4.4-1.1-3.4c-1.9,1.6-4.3,3.1-6.8,3.6
		c3.5-1.9,6.4-6.1,8.1-10.2c0.5-1.2-0.8-4.6-1.5-2.9c-1.5,3.6-4.1,7.5-7.2,9.4c3-2.9,5.1-7.5,5.9-11.5c0.2-0.8,0.1-2.1-0.5-2.6
		c-0.5-0.4-1.1-0.5-1.3,0.3c-0.8,4.4-3.6,9.8-7.3,12c1.7-1.9,3-4.2,4-6.7c0.4-0.8,0.3-1.9-0.1-2.6c-0.3-0.4-1-1.2-1.4-0.3
		c-1.1,2.8-2.6,5.2-4.5,7.2c2.7-7.1,5.7-14,8.7-20.8l0.3,0.1c3.8,4.3,9.4,4.7,13.6,0.7c0.9-0.9-0.1-4.5-1.1-3.4
		c-1.9,1.8-4.1,2.6-6.3,2.5c3.5-1.3,6.4-4.7,7.5-9.4c0.4-1.3-1.3-4.4-1.7-2.3c-1,4-3.4,6.8-6.4,8c2-1.8,3.7-4.3,4.9-7.1
		c0.5-1.2-0.8-4.6-1.5-2.9c-1.4,3.4-3.4,6.2-6.1,7.7c0.2-0.3,0.4-0.6,0.6-0.9c1.1-1.6,2.2-3.4,3.4-5c0.7-1.1-0.5-4.4-1.5-2.9
		c-1.3,1.9-2.6,3.7-3.7,5.6c-0.3,0.4-0.6,0.9-0.9,1.4c0.6-3.7,2-7.2,4.2-10.1c0.7-1-0.4-4.4-1.5-2.9c-3.1,4.2-4.8,9.4-5,14.9
		c-2-3.1-2.3-7.2-0.9-11c0.5-1.3-1-4.4-1.7-2.3c-1.4,3.9-1.4,8.1-0.2,11.8c-2.4-2.3-4.2-5.7-4.5-9.6c-0.2-1.9-2.2-3.1-1.9-0.5
		c0.6,6.8,3.8,12.6,8.9,15.5c-3.6,8-7.1,16.2-10.1,24.7c-1.9-5-1.4-10.7,1-15.4c0.6-1.2-0.6-4.6-1.5-2.9c-2.7,5.3-3.2,11.5-1.8,17.3
		c-3.4-4.1-5.5-9.3-4.6-15.3c0.3-1.5-1.5-3.8-1.9-1.4c-1,6,0.5,11.6,3.2,16.3c-2.8-2.3-5.1-5.4-6.5-9.2c-0.9-2.3-2.3-0.3-1.5,1.4
		c2.4,6.4,6.7,11.3,12.1,13.8c-3.5,11.2-5.7,22.7-5.2,34.6c-2.1-3.5-2.9-7.9-1.9-12.2c0.3-1.3-1.3-4.4-1.7-2.3
		c-1.3,5.8-0.4,12,2.5,16.8c-4.6-2.8-6.2-9.3-6-15.4c0-0.8-0.1-2.1-0.8-2.4c-0.6-0.3-1.1,0.2-1.1,1c-0.2,5.8,0.9,12.1,3.8,16.4
		c-4.8-3.2-8-9-8-16c0-2-1.9-3.1-1.9-0.5c0,0.7,0,1.4,0.1,2c-0.4-0.5-0.9-0.8-1.3-0.4c-1.7,1.5-3.9,2.9-6.3,3.7
		c3.2-1.9,5.6-5.6,6.8-9c0.4-1-1.4-3.4-1.8-2.1c-1.1,3-3.1,6.4-6,8.2c2.6-2.6,4.2-6.5,4.5-9.7c0.1-0.6-0.2-1.6-0.8-2
		c-0.5-0.3-1.1-0.3-1.2,0.4c-0.3,3.5-2.4,8-5.8,10.2c1.4-1.7,2.5-3.6,3.2-5.7c0.3-0.6,0.1-1.5-0.4-2c-0.3-0.3-1.1-0.8-1.4-0.1
		c-0.8,2.3-2,4.4-3.6,6.1c1.8-5.8,4-11.6,6.2-17.2h0.3c4.3,2.8,9.8,2.4,13.5-1.2c0.8-0.8-0.6-3.4-1.5-2.5c-1.6,1.6-3.7,2.6-5.9,2.8
		c3.3-1.5,5.8-4.5,6.4-8.2c0.2-1.1-1.8-3.2-2-1.5c-0.5,3.2-2.6,5.7-5.4,7c1.8-1.6,3.1-3.8,4-6.1c0.4-1-1.4-3.4-1.8-2.1
		c-1,2.8-2.7,5.3-5.1,6.8c0.2-0.3,0.3-0.5,0.4-0.7c0.9-1.4,1.8-2.9,2.7-4.3c0.6-0.9-1-3.3-1.8-2.1c-1,1.6-2.1,3.2-3,4.8
		c-0.2,0.4-0.5,0.8-0.8,1.2c0.1-3,1.2-5.8,3-8.3c0.6-0.9-0.9-3.3-1.8-2.1c-2.6,3.6-3.7,7.9-3.2,12.2c-2.4-2.2-3.1-5.2-2.2-8.4
		c0.3-1.1-1.5-3.2-2-1.5c-0.9,3.2-0.4,6.4,1.2,9.1c-2.7-1.5-4.8-3.9-5.6-6.8c-0.4-1.4-2.5-2.1-2-0.2c1.4,5.2,5.2,9.2,10.6,10.8
		c-2.6,6.7-5.2,13.5-7,20.4c-2.5-3.6-2.7-8.1-0.8-12c0.5-1-1.2-3.5-1.8-2.1c-2.1,4.5-1.9,9.3,0.3,13.6c-3.9-2.7-6.6-6.5-6.3-11.2
		c0.1-1.2-2-2.7-2.1-0.8c-0.2,4.8,1.8,8.9,5.1,12.1c-3-1.4-5.6-3.5-7.5-6.2c-1.2-1.7-2.3,0-1.4,1.3c3.2,4.6,8,7.9,13.6,9.1
		c-2.1,9.1-2.9,18.3-1,27.5c-2.5-2.4-3.8-5.7-3.3-9.2c0.1-1-1.8-3.2-2-1.5c-0.6,4.7,1,9.4,4.4,12.6c-4.9-1.6-7.2-6.3-7.8-11.1
		c-0.1-0.6-0.3-1.6-1.1-1.7c-0.7-0.2-1.1,0.3-1,0.9c0.5,4.5,2.3,9.2,5.7,12.2c-5.1-1.8-9-5.9-9.8-11.3c-0.2-1.5-2.3-2.1-2-0.2
		c1,6.2,5.2,11.4,11,13.8c-3.4-0.5-6.9-2.1-9.4-3.7c-1.5-1-1.5,1.7-0.5,2.4c4.6,3,12,5.8,17.6,3.5c0.2,0.6,0.4,1.2,0.7,1.8
		c2.1,5.1,4.8,9.8,7.8,14.3s6.2,8.9,7.8,14.1c-4.4-1.5-8.1-4.6-9.8-8.7c-0.7-1.6-2.5-1-1.8,0.6c1.9,4.4,5.3,8,9.7,10.1
		c-4.8,0.3-9.5-1.1-13.2-4.2c-1.4-1.1-1.3,1.6-0.5,2.4c3.2,2.6,7.1,4.2,11.1,4.5c-3.7,0.9-8.1,0-11.1-1.5c-1.3-0.7-1,2.2,0,2.7
		c4.7,2.5,12.6,3.2,16.7-0.8c0.8,3.7,1.4,7.4,2.9,10.9c1.6,3.9,3.7,7.6,6.5,10.9l0.1,0.1c-6.2-2.2-11.5-6-15.2-11.2
		c-1.2-1.7-2.3,0-1.4,1.2l0,0c3.3,4.7,7.7,8.5,13,11.1c-6,0.5-12-1.9-15.5-6.8c-1.1-1.6-2.2,0.1-1.4,1.4l0,0
		c4.7,6.8,13.4,10.1,21.8,7.5c0.1,0,0.1-0.1,0.2-0.1c0.3,0,0.4-0.2,0.5-0.5c0.1,0,0.1,0,0.2,0.1c2.1,2.2,4.3,4.2,6.8,6
		c-0.3,0-0.6,0.1-0.9,0.1c-0.2-1.1-1.2-0.6-1.7,0.2c-1.1,0.1-2.2,0.2-3.3,0.4c-2.6,0.3-5.3,0.7-7.9,1.1c-0.2-1.6-0.7-3.2-1.5-4.6
		c-0.4-0.8-2.4-1.4-1.7,0c0.8,1.5,1.3,3.2,1.3,4.9l-1.4,0.2c-0.3-1.8-1-3.6-1.9-5.3c-0.4-0.8-2.4-1.4-1.7,0c0.8,1.8,1.6,3.7,1.8,5.7
		l-0.7,0.1c-0.8-1.7-2-3.2-3.3-4.6c-1-1-1.9-0.1-1.1,0.9c1.1,1.2,2.1,2.6,2.7,4c-0.9,0.2-1.9,0.3-2.8,0.5c-4-3.3-8.7-5.8-12.8-9.2
		c-1.7-1.4-3.2-2.8-4.6-4.3c4.6-2.1,5.1-9,4.1-13.1c-0.2-0.8-2.2-1.8-1.9-0.5c0.8,3,0.7,7.9-1.8,10.5c0.6-2.9,0.3-5.9,0-8.8
		c-0.1-0.8-2-2-1.9-1c0.2,2.3,0.5,4.6,0.3,6.8c-0.2-2.1-0.5-4.1-0.9-6.2c-0.1-0.8-2.1-1.8-1.9-0.5c0.6,3.1,1,6.2,1.2,9.3
		c-2.7-3.7-4.8-7.8-6.2-12.3c-0.7-2.2-1.2-4.5-1.6-6.7c4.8,1.4,8.8-1.9,10.7-6c0.4-0.8-1.4-2.2-1.8-1.3c-0.7,1.5-1.8,3.2-3.3,4.3
		c1.6-2.2,2.2-5.5,1.9-8.2c0-0.8-2-2-1.9-1c0.2,2.4-0.2,5.4-1.6,7.5c1-2.6,0.9-5.7,0.1-8c-0.1-0.5-0.6-1.1-1.2-1.2
		c-0.4-0.1-0.9,0.1-0.7,0.6c0.9,2.6,0.9,6.3-0.9,8.8c0.5-1.6,0.6-3.3,0.4-4.9c0-0.5-0.4-1-0.9-1.3c-0.3-0.1-1.1-0.2-1,0.3
		c0.2,1.8,0,3.6-0.6,5.3c-0.6-4.6-0.8-9.2-1.1-13.8l0.2-0.1c3.9,0.8,7.7-1,9.1-4.6c0.3-0.8-1.5-2.3-1.8-1.3
		c-0.6,1.6-1.8,2.8-3.3,3.6c1.9-2,2.6-4.7,1.9-7.6c-0.2-0.8-2.3-1.8-1.9-0.5c0.7,2.4,0,4.8-1.6,6.4c0.8-1.7,1-3.6,0.9-5.4
		c0-0.8-2-2-1.9-1c0.2,2.3-0.2,4.4-1.5,6.2c0-0.2,0.1-0.4,0.1-0.6c0.2-1.2,0.3-2.5,0.6-3.8c0.1-0.8-1.7-2.1-1.9-1
		c-0.2,1.4-0.5,2.8-0.6,4.2c0,0.3-0.1,0.7-0.2,1c-0.8-2.1-1-4.4-0.5-6.7c0.2-0.8-1.7-2.1-1.9-1c-0.7,3.3-0.1,6.6,1.6,9.5
		c-2.4-0.9-3.9-2.8-4.2-5.3c-0.1-0.8-2.1-1.9-1.9-0.5c0.4,2.5,1.7,4.6,3.7,6.1c-2.4-0.3-4.6-1.4-6.1-3.2c-0.7-0.9-2.4-0.8-1.4,0.4
		c2.6,3.2,6.6,5.1,10.9,4.7c0.3,5.4,0.6,10.9,1.5,16.3c-2.9-1.9-4.4-4.9-4.4-8.2c0-0.8-1.9-2.1-1.9-1c-0.1,3.7,1.6,7.1,4.5,9.5
		c-3.6-0.8-6.7-2.7-8-6.2c-0.3-0.9-2.3-1.4-1.7,0c1.3,3.4,4.1,5.8,7.5,7.1c-2.6-0.2-5.1-0.9-7.3-2.3c-1.3-0.8-1.6,0.7-0.6,1.3
		c3.7,2.4,8.1,3.3,12.5,2.7c1.4,7,3.7,13.7,8,19.6c-2.5-1-4.5-2.9-5.2-5.5c-0.2-0.8-2.3-1.8-1.9-0.5c1.1,3.5,3.7,6.3,7.1,7.7
		c-3.9,0.2-7.1-2.5-9-5.6c-0.3-0.4-0.7-1-1.3-0.9c-0.5,0.1-0.6,0.5-0.4,0.9c1.8,3,4.5,5.8,7.9,7c-4.2,0.1-8.2-1.7-10.5-5.2
		c-0.6-1-2.3-0.9-1.4,0.4c2.7,4.1,7.3,6.6,12.1,6.7c-2.6,0.6-5.5,0.4-7.8,0c-1.4-0.3-0.5,1.6,0.4,1.8c4.2,0.8,10.3,0.8,13.5-2.4
		c0.3,0.4,0.7,0.7,1.1,1.1c3.1,3,6.5,5.5,10,7.9c1.8,1.2,3.6,2.4,5.4,3.6c-1.6,0.3-3.2,0.6-4.7,0.9c-0.1-0.1-0.2-0.2-0.3-0.3
		c-0.9-0.9-1.9-0.2-1.3,0.6c-75,15.5-138.2,51.7-217.3,58.8c-87.9,7.9-176.4-20.4-265.2-17.4c-47,1.6-83.5,33.4-130.4,31
		c-31.9-1.7-56.3-15.8-82.2-27.9c2-5.1,3.5-9.6,6.9-10.9c2.4-1,4.6-2.1,6.4-3.6l0,0c5.1-3.9,8.3-9.6,8.9-16.7
		c1.1-9.7,14.1-18,17.6-31.3c3.4-13.3-4.2-22.5-18.5-24.9c-8-1.5-11.8,1.1-13.9,5.3l0,0l-0.1,0.2c0-0.1,0.1-0.2,0.1-0.3
		c-1.7,3.3-2.1,7.5-2.8,11.4c-0.2,1.1-0.3,2.5-0.3,4.1v0.5l0,0c0,5.5,0.8,13.2,0.8,20.1v0.6l0,0c0,6.3-0.7,12-3.3,14.7
		c-3.2,3.3-7.4,5.3-12.3,8.3c1.3-10.3,6.6-21.6,5.6-28.3c-1.2-8.1-2.8-17.7-7.6-24.7c-4.9-7,16.8-30.8-12.1-30.7
		c-5.8,0-8.5,1.7-9.7,4.7l0,0c-2.6,6.6,2.9,18.9,1.3,29.2c-2.2,14.9,11.3,25.2,4.6,39.2c-0.6,1.2-1.6,2.5-2.8,4
		c-1.6-6.2-5-13.2-9.4-21.2c-7.8-14.1,0.3-29.1-3.4-44.6c-3.7-15.5-6.7-23.1-23.5-20.5c-8.3,1.2-12.9,4.3-14.9,9l0,0
		c0-0.1,0-0.2,0-0.2c-0.8,2-1.2,4.4-1.2,7c0,5.4,1.5,12.2,3.9,20.2c6.2,21.2,17,28.8,20.5,38.9c0.8,2.2,1,4.5,1,7
		c0,4.8-1,10-1.1,15.8c-1.3-0.1-2.7-0.1-4-0.2c-3-2.6-6.6-5.3-10.9-9.1c-10.1-8.8-7.1-21.8-11.6-33.3c-4.6-11.4-10.6-20-26.2-11.2
		c-2.5,1.5-3.9,3.7-4.7,6.5c-2.8,10.2,4.9,27.6,13,38.4c0.2,0.2,0.3,0.4,0.5,0.6l0,0c0.1,0.2,0.3,0.4,0.4,0.5v0.1
		c0.2,0.2,0.3,0.4,0.5,0.5l0,0l0,0c0.2,0.2,0.3,0.3,0.5,0.5l0.1,0.1c0.1,0.2,0.3,0.3,0.4,0.5l0,0c0.2,0.2,0.3,0.3,0.5,0.5l0,0
		c0.2,0.2,0.3,0.3,0.5,0.4l0.1,0.1c0.1,0.1,0.3,0.3,0.4,0.4l0,0l0,0c0.2,0.1,0.3,0.3,0.5,0.4l0,0c0.2,0.1,0.3,0.3,0.5,0.4l0.1,0.1
		c0.2,0.1,0.3,0.2,0.5,0.4l0,0c0.1,0.1,0.3,0.2,0.4,0.3h0.1l0,0l0.4,0.3h0.1c0.2,0.1,0.3,0.2,0.5,0.3l0,0c0.2,0.1,0.3,0.2,0.5,0.3
		l0,0c0.2,0.1,0.3,0.2,0.5,0.3h0.1c0.6,0.4,1.3,0.8,1.9,1.1l0,0l0.4,0.2h0.1l0,0c0.2,0.1,0.5,0.2,0.7,0.4l0.2,0.1l0,0l0.2,0.1
		l0.3,0.2h0.1l0.4,0.2l0,0l0.2,0.1l0.2,0.1l0,0l0.2,0.1l0.2,0.1l0.1,0.1h0.1c-34.1,4-69.9,13.8-96.9,5.8c-2.3-0.7-4.6-1.5-6.7-2.5
		c-5.3-2.3-10.4-4.8-15.2-7.4c-47.3-25.3-73.5-62-107.1-94.9c2.8-2,5.6-4.1,8-6.5c0.3-0.3,0.7-0.7,1-1c3,2.9,8.6,3,12.5,2.2
		c0.8-0.2,1.7-1.9,0.4-1.7c-2.1,0.4-4.8,0.6-7.2,0c4.5-0.1,8.7-2.5,11.2-6.2c0.8-1.2-0.7-1.3-1.3-0.4c-2.2,3.3-5.9,5-9.7,4.8
		c3.1-1.1,5.7-3.7,7.3-6.5c0.2-0.4,0.1-0.8-0.4-0.8c-0.5-0.1-1,0.5-1.2,0.9c-1.8,2.9-4.7,5.4-8.3,5.2c3.2-1.3,5.6-3.9,6.6-7.1
		c0.4-1.1-1.5-0.2-1.7,0.5c-0.7,2.4-2.5,4.2-4.8,5.1c3.9-5.5,6.1-11.7,7.4-18.1c4,0.6,8.1-0.3,11.5-2.5c1-0.6,0.7-2-0.5-1.2
		c-2,1.3-4.4,2-6.7,2.1c3.1-1.3,5.7-3.4,6.9-6.6c0.5-1.3-1.3-0.8-1.6,0c-1.2,3.2-4.1,4.9-7.4,5.7c2.6-2.2,4.2-5.4,4.1-8.8
		c0-1.1-1.8,0.1-1.8,0.9c0.1,3-1.4,5.9-4.1,7.6c0.8-5,1.1-10.1,1.4-15.1c4,0.3,7.7-1.3,10.1-4.3c0.9-1.1-0.7-1.2-1.3-0.4
		c-1.4,1.7-3.5,2.7-5.7,3c1.9-1.3,3.1-3.3,3.4-5.6c0.2-1.2-1.6-0.3-1.7,0.5c-0.3,2.3-1.7,4.1-3.9,4.9c1.6-2.7,2.1-5.7,1.5-8.7
		c-0.2-1-1.9,0.2-1.8,0.9c0.4,2.1,0.3,4.2-0.5,6.2c-0.1-0.3-0.1-0.7-0.2-1c-0.2-1.3-0.4-2.6-0.6-3.9c-0.2-1-1.9,0.1-1.8,0.9
		c0.2,1.2,0.4,2.4,0.5,3.5c0,0.2,0,0.4,0.1,0.6c-1.2-1.6-1.5-3.6-1.4-5.7c0.1-1-1.7,0.1-1.8,0.9c-0.1,1.7,0.1,3.5,0.8,5
		c-1.5-1.6-2.1-3.7-1.5-5.9c0.4-1.1-1.6-0.2-1.7,0.5c-0.7,2.6,0,5.2,1.7,7c-1.4-0.7-2.4-1.8-3-3.3c-0.3-0.9-2,0.5-1.7,1.2
		c1.3,3.3,4.8,5,8.4,4.2l0.2,0.1c-0.2,4.2-0.5,8.5-1,12.8c-0.5-1.6-0.7-3.2-0.6-4.9c0-0.5-0.6-0.4-0.9-0.3c-0.5,0.2-0.8,0.7-0.8,1.2
		c-0.2,1.5,0,3.1,0.4,4.6c-1.6-2.3-1.6-5.8-0.8-8.1c0.2-0.5-0.3-0.6-0.7-0.6c-0.5,0.1-0.9,0.7-1.1,1.1c-0.7,2.1-0.8,5.1,0.1,7.4
		c-1.3-1.9-1.7-4.7-1.5-6.9c0.1-1-1.7,0.1-1.8,0.9c-0.2,2.5,0.3,5.5,1.8,7.6c-1.3-1.1-2.4-2.6-3-4c-0.4-0.8-2,0.5-1.7,1.2
		c1.7,3.7,5.4,6.9,9.9,5.5c-0.4,2.1-0.9,4.2-1.5,6.2c-1.3,4.1-3.2,7.9-5.7,11.3c0.2-2.9,0.5-5.7,1.1-8.6c0.2-1.2-1.6-0.3-1.7,0.5
		c-0.4,1.9-0.7,3.8-0.9,5.7c-0.2-2.1,0-4.2,0.3-6.3c0.1-1-1.7,0.2-1.8,0.9c-0.3,2.7-0.5,5.5,0,8.2c-2.3-2.4-2.4-6.9-1.7-9.7
		c0.3-1.2-1.6-0.2-1.7,0.5c-1,3.8-0.5,10.2,3.8,12.1c-1.3,1.4-2.7,2.7-4.3,4s-3.2,2.4-4.9,3.6c-1.3-1.2-2.6-2.5-3.9-3.7
		c2.3-1.3,4.4-3.2,6-5.4l0,0c0.8-1.2-0.3-2.7-1.3-1.3c-1.6,2.3-3.9,4.1-6.4,5.1c-0.8-0.7-1.6-1.5-2.4-2.2c2.5-1.9,4.7-4.3,6.5-6.9
		l0,0c0.9-1.2-0.2-2.7-1.3-1.1c-1.8,2.6-4.1,4.8-6.7,6.6c-1-0.9-2-1.8-3-2.7c0.6-1.2,1.2-2.5,1.7-3.7c1.3-3.3,2-6.7,2.7-10.1
		c3.8,3.7,11.1,3.1,15.4,0.7c0.9-0.4,1.2-3.1,0-2.5c-2.8,1.4-6.9,2.2-10.3,1.4c3.8-0.3,7.3-1.7,10.3-4.2c0.8-0.7,0.8-3.2-0.4-2.2
		c-3.4,2.8-7.8,4.2-12.2,3.9c4.1-1.9,7.2-5.2,8.9-9.3c0.7-1.5-1-2-1.6-0.5c-1.6,3.8-5,6.7-9.1,8.1c1.5-4.8,4.5-8.8,7.3-13
		s5.3-8.6,7.2-13.3c0.2-0.6,0.4-1.1,0.6-1.7c5.2,2.1,12-0.5,16.3-3.2c0.9-0.6,1-3.1-0.4-2.2c-2.4,1.5-5.5,2.9-8.7,3.4
		c5.3-2.3,9.2-7.1,10.1-12.8c0.3-1.8-1.6-1.2-1.8,0.2c-0.8,5-4.4,8.8-9.1,10.4c3.2-2.8,4.9-7.1,5.3-11.3c0.1-0.5-0.3-1-0.9-0.8
		c-0.7,0.1-0.9,1.1-1,1.6c-0.5,4.4-2.7,8.8-7.2,10.2c3.2-3,4.7-7.4,4.1-11.7c-0.2-1.5-1.9,0.5-1.8,1.4c0.5,3.2-0.7,6.2-3.1,8.5
		c1.8-8.5,1-17-0.9-25.4c5.2-1.1,9.6-4.2,12.6-8.4c0.9-1.2-0.2-2.7-1.3-1.2c-1.7,2.5-4.2,4.5-7,5.8c3-3,4.9-6.8,4.7-11.2
		c-0.1-1.8-2-0.3-1.9,0.8c0.2,4.4-2.3,7.9-5.9,10.4c2-3.9,2.2-8.5,0.2-12.6c-0.6-1.3-2.1,1-1.7,1.9c1.7,3.7,1.5,7.8-0.8,11.1
		c-1.7-6.4-4.1-12.7-6.5-18.9c5-1.5,8.5-5.2,9.8-10c0.5-1.8-1.4-1.1-1.8,0.2c-0.8,2.7-2.7,4.9-5.2,6.3c1.5-2.5,2-5.5,1.1-8.4
		c-0.4-1.6-2.1,0.4-1.8,1.4c0.8,2.9,0.1,5.8-2.1,7.7c0.5-4-0.5-7.9-2.9-11.3c-0.8-1.1-2.2,1.1-1.7,1.9c1.7,2.4,2.6,5,2.8,7.7
		c-0.3-0.4-0.5-0.7-0.7-1.1c-0.9-1.5-1.8-2.9-2.8-4.4c-0.8-1.1-2.2,1.1-1.7,1.9c0.9,1.3,1.7,2.7,2.5,4c0.1,0.2,0.3,0.4,0.4,0.7
		c-2.3-1.4-3.8-3.7-4.8-6.3c-0.4-1.2-2,1-1.7,1.9c0.8,2.1,2,4.1,3.7,5.7c-2.6-1.2-4.5-3.5-5-6.5c-0.2-1.5-2,0.4-1.8,1.4
		c0.5,3.5,2.8,6.3,5.9,7.6c-2-0.2-3.9-1-5.5-2.5c-0.8-0.9-2.1,1.5-1.4,2.3c3.4,3.3,8.5,3.7,12.5,1.1h0.3c2,5.2,4.1,10.5,5.7,15.9
		c-1.5-1.7-2.6-3.6-3.4-5.7c-0.2-0.7-1-0.2-1.3,0.1c-0.4,0.5-0.6,1.3-0.4,1.9c0.6,1.9,1.6,3.7,2.9,5.3c-3.2-2-5.1-6.2-5.4-9.5
		c-0.1-0.6-0.7-0.6-1.1-0.4c-0.6,0.3-0.8,1.2-0.7,1.8c0.3,2.9,1.7,6.5,4.2,8.9c-2.6-1.7-4.6-4.9-5.5-7.6c-0.4-1.2-2,1-1.7,1.9
		c1.1,3.1,3.3,6.5,6.3,8.3c-2.2-0.7-4.3-2-5.8-3.4c-0.9-0.8-2.2,1.5-1.4,2.3c4.1,3.7,10.3,5.7,14.9,2c0.7,2.7,1.2,5.5,1.6,8.2
		c0.7,5.6,0.4,11.1-0.8,16.4c-1.4-3.6-2.5-7.2-3.3-10.9c-0.4-1.6-2.1,0.4-1.8,1.4c0.6,2.5,1.3,4.9,2.1,7.3c-1.3-2.4-2.2-5.1-3.1-7.7
		c-0.4-1.2-1.9,1-1.7,1.9c1.1,3.5,2.3,6.9,4.4,9.9c-4.1-1.9-6.7-7.2-7.3-11c-0.3-1.5-2,0.4-1.8,1.4c0.9,5.1,4.9,12.5,11.1,12.8
		c-0.8,2.3-1.8,4.6-3,6.8c-3.7,7.1-9.2,13.3-11.9,20.8c-1.7-3.1-1.3-6.7-0.1-10c0-0.1,0.1-0.2,0.1-0.3c0.9-0.4,1.7-0.9,2.4-1.4
		c0.9-0.6,1-3.1-0.4-2.2c-1.9,1.2-4.2,2.3-6.7,3c0-0.2,0-0.4-0.1-0.5c4.3-2.5,7.4-6.8,8.2-11.8c0.3-1.8-1.6-1.2-1.8,0.2
		c-0.8,5-4.4,8.8-9.1,10.4c3.2-2.8,4.9-7.1,5.3-11.3c0.1-0.5-0.3-1-0.9-0.8c-0.7,0.1-0.9,1.1-1,1.6c-0.5,4.4-2.7,8.8-7.2,10.2
		c3.2-3,4.7-7.4,4.1-11.7c-0.2-1.5-1.9,0.5-1.8,1.4c0.5,3.2-0.7,6.2-3.1,8.5c1.8-8.5,1-17-0.9-25.4c5.2-1.1,9.6-4.2,12.6-8.4
		c0.9-1.2-0.2-2.7-1.3-1.2c-1.7,2.5-4.2,4.5-7,5.8c3-3,4.9-6.8,4.7-11.2c-0.1-1.8-2-0.3-1.9,0.8c0.2,4.4-2.3,7.9-5.9,10.4
		c2-3.9,2.2-8.5,0.2-12.6c-0.6-1.3-2.1,1-1.7,1.9c1.7,3.7,1.5,7.8-0.8,11.1c-1.7-6.4-4.1-12.7-6.5-18.9c5-1.5,8.5-5.2,9.8-10
		c0.5-1.8-1.4-1.1-1.8,0.2c-0.8,2.7-2.7,4.9-5.2,6.3c1.5-2.5,2-5.5,1.1-8.4c-0.4-1.6-2.1,0.4-1.8,1.4c0.8,2.9,0.1,5.8-2.1,7.7
		c0.5-4-0.5-7.9-2.9-11.3c-0.8-1.1-2.2,1.1-1.7,1.9c1.7,2.4,2.6,5,2.8,7.7c-0.3-0.4-0.5-0.7-0.7-1.1c-0.9-1.5-1.8-2.9-2.8-4.4
		c-0.8-1.1-2.2,1.1-1.7,1.9c0.9,1.3,1.7,2.7,2.5,4c0.1,0.2,0.3,0.4,0.4,0.7c-2.3-1.4-3.8-3.7-4.8-6.3c-0.4-1.2-2,1-1.7,1.9
		c0.8,2.1,2,4.1,3.7,5.7c-2.6-1.2-4.5-3.5-5-6.5c-0.2-1.5-2,0.4-1.8,1.4c0.5,3.5,2.8,6.3,5.9,7.6c-2-0.2-3.9-1-5.5-2.5
		c-0.8-0.9-2.1,1.5-1.4,2.3c3.4,3.3,8.5,3.7,12.5,1.1h0.3c2,5.2,4.1,10.5,5.7,15.9c-1.5-1.7-2.6-3.6-3.4-5.7c-0.2-0.7-1-0.2-1.3,0.1
		c-0.4,0.5-0.6,1.3-0.4,1.9c0.6,1.9,1.6,3.7,2.9,5.3c-3.2-2-5.1-6.2-5.4-9.5c-0.1-0.6-0.7-0.6-1.1-0.4c-0.6,0.3-0.8,1.2-0.7,1.8
		c0.3,2.9,1.7,6.5,4.2,8.9c-2.6-1.7-4.6-4.9-5.5-7.6c-0.4-1.2-2,1-1.7,1.9c1.1,3.1,3.3,6.5,6.3,8.3c-2.2-0.7-4.3-2-5.8-3.4
		c-0.9-0.8-2.2,1.5-1.4,2.3c4.1,3.7,10.3,5.7,14.9,2c0.7,2.7,1.2,5.5,1.6,8.2c0.7,5.6,0.4,11.1-0.8,16.4c-1.4-3.6-2.5-7.2-3.3-10.9
		c-0.4-1.6-2.1,0.4-1.8,1.4c0.6,2.5,1.3,4.9,2.1,7.3c-1.3-2.4-2.2-5.1-3.1-7.7c-0.4-1.2-1.9,1-1.7,1.9c1.1,3.5,2.3,6.9,4.4,9.9
		c-4.1-1.9-6.7-7.2-7.3-11c-0.3-1.5-2,0.4-1.8,1.4c0.9,5.1,4.9,12.5,11.1,12.8c-0.8,2.3-1.8,4.6-3,6.8c-1.3,2.4-2.7,4.7-4.2,7
		c-3-2.2-6.2-4.4-9.4-6.5c3.1-2.8,4.8-7.8,5.1-12.6c0.1-1.4-1.6-3.6-1.8-1.3c-0.3,5-2.4,10.2-6.1,12c2.7-3.6,3.8-8.8,4.3-13.7
		c0.2-1.4-1.5-3.6-1.8-1.3c-0.4,4-1.2,8.4-3.3,11.5c0.9-3.7,0.8-7.7,0.2-11.6c-0.3-2.1-1.9-1.6-1.7,0.4c0.6,4.3,0.5,8.9-1.5,12.5
		l-0.2-0.1c-1.6-9.8-6-18.6-8.6-28.1c-0.8-3-1.5-6.1-1.9-9.2c6.2,0.6,11.3-8.1,12.9-14.4c0.3-1.2-1.1-4-1.6-2.1
		c-1.2,4.6-4.6,11-8.9,12.7c2.5-3.4,4.2-7.6,5.9-11.8c0.4-1.1-0.8-4.2-1.3-2.7c-1.3,3.2-2.6,6.4-4.3,9.3c1.2-2.9,2.2-5.9,3.2-9
		c0.4-1.2-1-4-1.6-2.1c-1.4,4.6-3.1,9-4.9,13.2c0-5.3,0.6-12.3,2.1-19.3c0.8-3.4,1.7-6.8,2.8-10.2c4,5.5,10.5,4,15.1,0
		c0.9-0.8,0-4-1-3.1c-1.7,1.5-4,2.8-6.3,3.3c3.2-1.8,5.9-5.7,7.5-9.5c0.5-1.1-0.8-4.2-1.3-2.7c-1.4,3.3-3.8,7-6.6,8.7
		c2.8-2.7,4.8-6.9,5.5-10.6c0.2-0.7,0.1-1.9-0.4-2.4c-0.4-0.4-1-0.5-1.2,0.3c-0.8,4.1-3.3,9.1-6.8,11.1c1.5-1.8,2.8-3.9,3.7-6.2
		c0.3-0.7,0.3-1.7-0.1-2.4c-0.3-0.4-0.9-1.1-1.3-0.3c-1,2.6-2.5,4.8-4.2,6.6c2.5-6.5,5.3-12.9,8.1-19.2l0.3,0.1
		c3.5,3.9,8.7,4.3,12.5,0.7c0.8-0.8-0.1-4.1-1-3.1c-1.7,1.7-3.8,2.4-5.8,2.3c3.3-1.2,5.9-4.3,7-8.7c0.3-1.2-1.2-4-1.6-2.1
		c-0.9,3.7-3.2,6.3-5.9,7.4c1.9-1.6,3.4-4,4.5-6.5c0.5-1.1-0.8-4.2-1.3-2.7c-1.3,3.1-3.2,5.8-5.7,7.1c0.2-0.3,0.4-0.5,0.5-0.8
		c1-1.5,2-3.1,3.1-4.6c0.7-1-0.4-4-1.3-2.7c-1.2,1.7-2.4,3.4-3.5,5.1c-0.3,0.4-0.6,0.8-0.9,1.3c0.5-3.5,1.9-6.6,3.9-9.3
		c0.7-0.9-0.3-4-1.3-2.7c-2.9,3.9-4.5,8.7-4.6,13.8c-1.9-2.9-2.1-6.6-0.9-10.2c0.4-1.2-0.9-4-1.6-2.1c-1.3,3.6-1.3,7.5-0.2,10.9
		c-2.2-2.2-3.8-5.3-4.2-8.9c-0.2-1.7-2-2.8-1.8-0.5c0.6,6.3,3.5,11.6,8.2,14.3c-3.3,7.4-6.6,15-9.3,22.8c-1.7-4.6-1.3-9.9,0.9-14.2
		c0.6-1.1-0.6-4.2-1.3-2.7c-2.5,4.9-3,10.7-1.7,16c-3.1-3.8-5.1-8.6-4.2-14.2c0.3-1.4-1.4-3.5-1.8-1.3c-0.9,5.5,0.4,10.7,3,15
		c-2.6-2.1-4.7-5-6-8.5c-0.8-2.1-2.1-0.3-1.4,1.3c2.3,5.9,6.2,10.5,11.2,12.8c-3.2,10.3-5.2,21-4.8,32c-2-3.2-2.7-7.3-1.8-11.3
		c0.3-1.2-1.2-4-1.6-2.1c-1.2,5.4-0.4,11.1,2.3,15.5c-4.2-2.6-5.7-8.6-5.6-14.2c0-0.7-0.1-1.9-0.8-2.2c-0.6-0.3-1,0.2-1,0.9
		c-0.2,5.3,0.8,11.1,3.6,15.2c-4.4-2.9-7.4-8.3-7.4-14.8c0-1.8-1.8-2.8-1.8-0.5c0,0.6,0,1.3,0.1,1.9c-0.3-0.5-0.8-0.8-1.2-0.4
		c-1.5,1.4-3.6,2.7-5.8,3.4c3-1.8,5.2-5.2,6.3-8.3c0.4-0.9-1.3-3.2-1.7-1.9c-1,2.7-2.9,5.9-5.5,7.6c2.4-2.4,3.9-6,4.2-8.9
		c0.1-0.6-0.1-1.5-0.7-1.8c-0.5-0.3-1.1-0.3-1.1,0.4c-0.3,3.3-2.2,7.4-5.4,9.5c1.3-1.6,2.3-3.4,3-5.3c0.3-0.6,0-1.4-0.4-1.9
		c-0.3-0.3-1-0.7-1.3-0.1c-0.7,2.1-1.9,4-3.4,5.7c1.7-5.4,3.7-10.7,5.7-15.9h0.3c4,2.6,9.1,2.2,12.5-1.1c0.7-0.7-0.6-3.2-1.4-2.3
		c-1.5,1.5-3.5,2.4-5.5,2.5c3.1-1.4,5.3-4.1,5.9-7.6c0.2-1-1.6-3-1.8-1.4c-0.5,3-2.4,5.3-5,6.5c1.7-1.5,2.9-3.5,3.7-5.7
		c0.4-0.9-1.3-3.2-1.7-1.9c-0.9,2.6-2.5,4.9-4.8,6.3c0.2-0.2,0.3-0.5,0.4-0.7c0.8-1.3,1.6-2.7,2.5-4c0.5-0.9-0.9-3.1-1.7-1.9
		c-1,1.5-1.9,3-2.8,4.4c-0.2,0.3-0.5,0.7-0.7,1.1c0.1-2.7,1.1-5.4,2.8-7.7c0.6-0.8-0.8-3.1-1.7-1.9c-2.4,3.4-3.4,7.3-2.9,11.3
		c-2.2-2-2.9-4.8-2.1-7.7c0.3-1-1.4-3-1.8-1.4c-0.9,3-0.4,5.9,1.1,8.4c-2.5-1.4-4.4-3.6-5.2-6.3c-0.4-1.3-2.3-1.9-1.8-0.2
		c1.3,4.8,4.8,8.5,9.8,10c-2.4,6.2-4.8,12.5-6.5,18.9c-2.3-3.3-2.5-7.4-0.8-11.1c0.5-0.9-1.1-3.2-1.7-1.9c-1.9,4.1-1.7,8.6,0.2,12.6
		c-3.6-2.5-6.1-6-5.9-10.4c0.1-1.1-1.8-2.5-1.9-0.8c-0.2,4.4,1.7,8.2,4.7,11.2c-2.8-1.3-5.2-3.3-7-5.8c-1.1-1.5-2.1,0-1.3,1.2
		c2.9,4.2,7.4,7.3,12.6,8.4c-2,8.4-2.7,16.9-0.9,25.4c-2.3-2.2-3.6-5.3-3.1-8.5c0.1-1-1.6-3-1.8-1.4c-0.5,4.3,0.9,8.6,4.1,11.7
		c-4.5-1.5-6.7-5.9-7.2-10.2c-0.1-0.5-0.3-1.5-1-1.6c-0.6-0.2-1,0.3-0.9,0.8c0.5,4.1,2.1,8.5,5.3,11.3c-4.7-1.7-8.3-5.4-9.1-10.4
		c-0.2-1.4-2.1-1.9-1.8-0.2c0.9,5.7,4.8,10.5,10.1,12.8c-3.2-0.5-6.3-1.9-8.7-3.4c-1.4-0.9-1.4,1.6-0.4,2.2
		c4.3,2.7,11.1,5.4,16.3,3.2c0.2,0.6,0.4,1.1,0.6,1.7c0.9,2.1,1.8,4.1,2.9,6.1c-4.6-0.6-9.3-0.9-14.2-1.2c0.1-0.8,0-1.7-0.3-2.6
		c-0.2-0.7-2.1-1.6-1.7-0.5c0.3,1,0.3,2,0.1,3h-0.8c0.1-0.7,0.1-1.3,0-2c0-0.8-1.9-1.9-1.8-0.9c0.1,1,0,1.9-0.1,2.8h-0.8
		c0.1-0.4,0.1-0.8,0.2-1.2c0.1-0.8-1.6-1.9-1.8-0.9c-0.1,0.7-0.2,1.4-0.3,2h-1.1c-0.1-1.1,0-2.2,0.2-3.4c0.1-0.7-1.5-1.9-1.8-0.9
		c-0.3,1.4-0.3,2.8-0.1,4.2c-0.7,0-1.5,0-2.2,0c0-0.1,0-0.2-0.1-0.3c-0.1-0.8-1.9-1.7-1.7-0.5c0,0.3,0.1,0.5,0.1,0.8
		c-18.5-0.2-37.9,0.4-55.1-1.3L0,257.2L0,257.2L0,257.2z M1218.4,250L1218.4,250c0-1.2-0.8-1.1-1.4-0.5c-2.7-1.7-5.2-3.7-7.5-6
		c1-0.5,2-1.1,3-1.7c2.5,3.6,5.7,6.2,9.4,7.5l-0.2,0.6C1220.7,249.9,1219.5,249.9,1218.4,250L1218.4,250L1218.4,250z M1223.7,249.8
		L1223.7,249.8L1223.7,249.8L1223.7,249.8L1223.7,249.8L1223.7,249.8z M1234.2,249.8c-0.3-0.4-0.5-0.9-0.8-1.3
		c2.6-1.1,5.2-2.6,7.1-5l0,0c3,0.3,6.2-0.2,8.8-1.3c1.2,0.9,2.6,1.7,4,2.4c-2.2,2.2-4.6,4.1-7.2,5.8
		C1242.1,250.1,1238.1,249.9,1234.2,249.8L1234.2,249.8L1234.2,249.8z M1249.5,250.7c2.1-1.6,4.1-3.4,5.9-5.3c0.1,0,0.1,0,0.2-0.1
		c0.1,0.3,0.2,0.5,0.5,0.5c0.1,0,0.1,0.1,0.2,0.1c1.3,0.4,2.7,0.7,4,0.8c-0.3,0.2-0.5,0.4-0.7,0.6c-0.7,1.3-1.2,2.7-1.4,4.2
		C1255.2,251.3,1252.3,251,1249.5,250.7L1249.5,250.7L1249.5,250.7z M1260,251.8c0.1-1.5,0.5-3.1,1.3-4.4c0.1-0.2,0.2-0.4,0.1-0.5
		c0.7,0,1.3,0,2,0c-0.1,0.1-0.2,0.2-0.2,0.3c-0.7,1.5-1.4,3.2-1.8,4.8L1260,251.8L1260,251.8L1260,251.8z M1251.6,205.5
		c1.1,0.5,2.3,0.7,3.6,0.8c-0.3,6.1,3,13,10.2,13.3c-0.9,4.3-1.6,8.6-3.4,12.7c-1.5,3.2-3.3,6.1-5.5,8.8c-0.6-2-1.1-4.1-0.9-6.2
		c0.1-2.7,1.2-5.3,2.3-7.9c0.7-1.6-1-2.2-1.8-0.6c-1.3,3-2.4,6.1-2.6,9.4c-0.1,1.4,0,2.8,0.3,4.2c-2.2-2.7-2.5-6.5-2.4-9.9
		c0-2-2.1-0.4-2.1,0.8c0,1.1,0,2.1,0,3.2c-0.7,0.5-1.3,0.9-2,1.3c-0.6-1.5-0.7-3.1-0.8-4.7c-0.1-0.8-0.5-1-0.9-0.9
		c0.4-0.7,0.8-1.5,1.2-2.3c0.7-1.6-1-2.2-1.8-0.6c-1.2,2.8-3.3,5.2-5.9,6.9c0.1-0.7,0.2-1.3,0.2-2c0.1-1-0.6-2.3-1.2-2.5
		c1.5-2.6,3.3-5.1,4.9-7.7c3-4.6,5.7-9.3,7.8-14.4C1251.2,206.7,1251.4,206.1,1251.6,205.5L1251.6,205.5L1251.6,205.5z
		 M1237.4,230.7c-0.1,1.5-0.3,3-0.6,4.4c-0.5,0.2-1,0.4-1.5,0.6C1235.8,234,1236.6,232.3,1237.4,230.7L1237.4,230.7z M1233.9,241.7
		c0.1-0.3,0.1-0.6,0.2-1c0.2,0.2,0.4,0.3,0.5,0.5c-0.3,0.5-0.6,0.9-0.9,1.3L1233.9,241.7L1233.9,241.7L1233.9,241.7z M1259.6,203.3
		L1259.6,203.3l-0.3,0.1L1259.6,203.3L1259.6,203.3z M1264.4,204.5c-0.8,2.8-1.3,5.7-0.8,8.5c-1.4-2.2-1.9-4.9-2-7.5
		C1262.5,205.3,1263.5,204.9,1264.4,204.5L1264.4,204.5z M1259.5,206c0.1,3.5,0.8,7,2.8,9.8c-3.3-1.8-5-5.7-5.1-9.5
		C1258,206.3,1258.7,206.2,1259.5,206L1259.5,206L1259.5,206z M1244.5,231.7c0.1,1.6,0.3,3.2,0.7,4.8c-0.6,0.2-1.2,0.4-1.8,0.6
		c0.3-1.2,0.5-2.4,0.7-3.5c0.1-0.4,0-0.8-0.1-1.2C1244.2,232.1,1244.3,231.9,1244.5,231.7L1244.5,231.7z M1241.7,234.7
		c-0.2,1-0.5,1.9-0.9,2.9c-0.8,0.1-1.5,0.1-2.3,0.1c0.1-0.3,0.1-0.6,0.2-0.9C1239.8,236.2,1240.8,235.5,1241.7,234.7L1241.7,234.7
		L1241.7,234.7z M1232.1,239.4c-0.3,1.4-0.8,2.7-1.3,4.1c-0.7-1.6-1.4-3.2-2-4.8C1229.8,239.1,1230.9,239.4,1232.1,239.4
		L1232.1,239.4z M1226.2,237c0.9,2.9,1.9,5.7,3.2,8.4v0.1c-4.5-3-8.4-7.2-11.2-12.3c0.1-0.9,0.2-1.8,0.3-2.7
		c0.1-1.2-1.8-2.7-2.1-0.9c-0.1-0.3-0.2-0.5-0.3-0.8c-0.9-2.4-2.3-0.4-1.5,1.3l0,0c0.4,1.1,0.9,2.2,1.4,3.2c-0.4,1.4-0.9,2.7-2,3.8
		c-0.3,0.4-0.7,0.7-1.1,1l-0.2-0.3c0.8-2.5,1-5.2,0.9-7.9c0-1.2-2.1-2.8-2.1-0.8c0.1,1.8,0,3.7-0.4,5.5c-0.8-1.2-1.8,0.5-1.3,2.1
		l0,0c0.1,0.3,0.2,0.5,0.3,0.8c-0.3,0.6-0.6,1.1-1,1.6c0.3-1.4,0.4-2.8,0.3-4.2c-0.2-3.2-1.3-6.4-2.6-9.4c-0.7-1.6-2.5-1-1.8,0.6
		c1.1,2.5,2.2,5.1,2.3,7.9c0.2,2.1-0.3,4.2-0.9,6.2c-2.2-2.7-4-5.6-5.5-8.8c-1.8-4.1-2.5-8.4-3.4-12.7c4.2-0.2,7-2.6,8.6-5.7
		c0.1,0.7,0.3,1.3,0.6,1.6c4.3,4,12,6.2,16.6,1.8c0.1,2.6,0.2,5.2,0.4,7.7c-0.6,0.1-1.5,1-1.5,1.8
		C1221.9,229.7,1223.2,234.2,1226.2,237L1226.2,237L1226.2,237z M1249.7,236.7c0.2,0.8,0.4,1.6,0.6,2.4l-0.2,0.1
		c-0.4-0.3-0.8-0.7-1.1-1.1c-0.2-0.2-0.4-0.4-0.5-0.6C1248.9,237.3,1249.3,237,1249.7,236.7L1249.7,236.7L1249.7,236.7z
		 M1246.1,238.7c0.2,0.4,0.5,0.8,0.7,1.1c0.1,0.1,0.2,0.2,0.3,0.4c-1.6,0.4-3.3,0.6-5,0.5c0.1-0.3,0.2-0.5,0.3-0.8
		C1243.7,239.7,1245,239.3,1246.1,238.7L1246.1,238.7L1246.1,238.7z M1223.3,246c-3.4-0.8-6.4-2.7-8.8-5.6c0.6-0.5,1.1-1.1,1.5-1.7
		c0.6-0.8,1.1-1.7,1.4-2.6c2,3.5,4.5,6.7,7.3,9.3C1224.3,245.2,1223.7,245.3,1223.3,246L1223.3,246L1223.3,246z M1224.9,245.6
		c0.3,0.2,0.5,0.5,0.8,0.7c-0.2,0-0.4,0-0.7-0.1C1225.1,246,1225,245.8,1224.9,245.6L1224.9,245.6L1224.9,245.6z M1223,209.6
		c-4.2-2.7-7.3-7.2-8.4-12.7c-0.5-2.2-2.3-1.7-1.8,0.4c1.2,5.9,4,11.1,8.1,14.4c-4.8-0.4-9.2-3-12.4-7.5c-0.4-0.6-0.7-0.5-0.9-0.2
		c-0.5-1-2-1.8-1.9-0.2c0.4,4.2-1.3,8.9-5,10.9c2.5-3.4,2.9-7.9,2.8-12.1c0-1.2-2.1-2.8-2.1-0.8c0.1,3.4-0.2,7.2-2,10.1
		c0.5-3.2-0.1-6.6-1.2-9.7c-0.6-1.7-2.3-1.1-1.8,0.6c1.3,3.6,1.7,7.5-0.1,10.8c-2.9-8.1-8.9-14.9-12.9-22.5
		c-1.3-2.4-2.3-4.9-3.2-7.4c6.7-0.4,11-8.4,12-13.9c0.2-1.1-1.7-3.2-2-1.5c-0.7,4-3.5,9.9-7.9,11.9c2.2-3.2,3.5-6.9,4.8-10.7
		c0.3-1-1.4-3.4-1.8-2.1c-0.9,2.9-1.9,5.7-3.4,8.4c0.9-2.6,1.6-5.3,2.2-7.9c0.3-1.1-1.6-3.2-2-1.5c-0.9,4-2.1,7.9-3.6,11.8
		c-1.3-5.8-1.5-11.7-0.8-17.7c0.4-3,1-6,1.7-8.9c5,4,11.7,1.8,16.1-2.2c0,0,0,0,0.1-0.1c1,6.4,4,12,8.4,15.4
		c-3.3-1.3-6.5-3.8-8.8-6.3c-1.4-1.5-1.7,2-0.8,2.9c4.1,4.5,11,9.4,16.9,7.4c0.1,0.8,0.3,1.6,0.4,2.4c1.3,6.8,3.3,13.2,5.6,19.5
		C1219.6,196.7,1222.1,202.8,1223,209.6L1223,209.6L1223,209.6z M1217.9,214.7c-3.8,0.5-8-1.3-10.8-3.8c-0.1-0.1-0.1-0.1-0.2-0.1
		c0.4-1.1,0.6-2.4,0.7-3.6C1210.4,211.1,1214,213.6,1217.9,214.7L1217.9,214.7z M85.5,132.5c-0.4-0.7-0.8-1.4-1.1-2.1
		c-1.2-2.2-2.2-4.5-3-6.8c6.2-0.3,10.2-7.8,11.1-12.8c0.2-1-1.6-3-1.8-1.4c-0.6,3.7-3.2,9.1-7.3,11c2.1-3,3.3-6.4,4.4-9.9
		c0.3-0.9-1.3-3.2-1.7-1.9c-0.9,2.7-1.8,5.3-3.1,7.7c0.8-2.4,1.5-4.9,2.1-7.3c0.3-1-1.5-3-1.8-1.4c-0.9,3.7-2,7.3-3.3,10.9
		c-1.2-5.3-1.4-10.8-0.8-16.4c0.4-2.8,0.9-5.5,1.6-8.2c4.6,3.7,10.8,1.7,14.9-2c0,0,0,0,0.1-0.1c0.9,5.9,3.7,11.1,7.8,14.2
		c-3.1-1.2-6-3.5-8.1-5.8c-1.3-1.4-1.6,1.8-0.8,2.7c3.8,4.2,10.2,8.7,15.6,6.9c0.1,0.7,0.2,1.5,0.4,2.2c1.2,6.2,3,12.2,5.1,18
		c1.8,5,3.8,9.8,4.8,15.1c-1.6-0.9-3.2-1.9-4.9-2.8c-1.2-1.9-2-4-2.5-6.3c-0.4-2-2.1-1.6-1.7,0.4c0.3,1.5,0.7,3,1.2,4.3l-0.2-0.1
		C104.9,136.3,95.7,133.9,85.5,132.5L85.5,132.5L85.5,132.5z M140.2,158c2.6-4,4.9-8.1,6.7-12.5c0.2-0.6,0.4-1.1,0.6-1.7
		c1,0.4,2.2,0.7,3.3,0.7c-0.3,5.6,2.7,12,9.4,12.3c-0.9,4-1.5,7.9-3.2,11.7c-0.3,0.7-0.7,1.4-1.1,2.1c-1.3-1.2-2.7-2.3-4.1-3.5
		c0.4-1.2,0.9-2.3,1.4-3.5c0.7-1.5-1-2-1.6-0.5c-0.4,0.9-0.8,1.9-1.1,2.9C147.2,163.4,143.8,160.7,140.2,158L140.2,158L140.2,158z
		 M154.9,141.8L154.9,141.8l-0.2,0.1L154.9,141.8L154.9,141.8z M159.4,143c-0.8,2.6-1.2,5.3-0.8,7.9c-1.3-2-1.7-4.5-1.9-6.9
		C157.6,143.6,158.5,143.3,159.4,143L159.4,143L159.4,143z M154.8,144.4c0.1,3.2,0.7,6.5,2.6,9.1c-3.1-1.7-4.6-5.3-4.7-8.8
		C153.4,144.6,154.1,144.5,154.8,144.4L154.8,144.4z"/>
	<path class="st2" d="M458.2,329.1L458.2,329.1z M1532.1,115.5L1532.1,115.5L1532.1,115.5L1532.1,115.5L1532.1,115.5L1532.1,115.5z
		 M1403.8,273.2c1.3-7.9-1.1-11.2-3.2-15.1c-1.7-3.2-4.5-5.7-6.9-8.2c-4.2-4.6-7.3-9.9-9.2-15.9c-1.3-4.1-2.1-8.8-0.5-12.9
		c0.1-0.6,0.4-1.1,0.9-1.3c1.1-0.9,2.9-0.2,3.9,0.8c5.2,4.9,4.3,13.6,7.2,20.4c2.1,4.8,5.8,8.7,6.9,13.7c0.6,3.7,3.4,8.9,2.2,15.4
		L1403.8,273.2L1403.8,273.2L1403.8,273.2z M1509,210.1c1.4-8.4-1.2-12-3.4-16.1c-1.8-3.4-4.8-6-7.3-8.7c-4.4-4.9-7.7-10.5-9.8-16.9
		c-1.4-4.3-2.2-9.3-0.6-13.7c0.1-0.6,0.5-1.1,0.9-1.4c1.2-0.9,3.1-0.3,4.2,0.9c5.6,5.2,4.6,14.5,7.7,21.7c2.2,5.1,6.2,9.3,7.4,14.6
		c0.7,3.9,3.6,9.5,2.3,16.4L1509,210.1L1509,210.1L1509,210.1z M393,299.8L393,299.8z M1425,190.8c0.3,4.5,0.3,8.7,0,12.1l0,0l0,0
		l0,0c-0.8,8.9-2.3,16.8-4.2,23.8c-4-17.8-8.1-9.5-25-27.8c-5.6-6.1-6.3-12-11.5-18.5c-3.9-4.9-10.2-7.5-16.2-6.6
		c-1.9,0.3-3.8,0.9-5.2,2.2c-2.8,2.3-3.2,6.9-1.9,10.5c9.3,24.8,54.7,23.4,59.8,40.3c-2.8,10.3-6.3,19-9.6,27.2
		c-5.2,12.7-9.8,24.1-10.1,38.3c-2.5-10.3-7.1-7.2-18.6-25.4c-4.5-7.1-4.1-13-8.1-20.4c-3-5.5-8.8-9.3-14.8-9.5
		c-1.9-0.1-3.9,0.2-5.5,1.2c-3.1,1.8-4.4,6.2-3.7,9.9c0.9,4.6,3,8.6,5.8,12.2c-1.1,2.9-3.1,5.3-5.5,7.3c2.1-4.8,2.3-10.2,0.3-15.2
		c-0.6-1.5-2.3,1.2-1.8,2.3c1.9,4.4,1.6,9.4-0.8,13.4c-1.9-7.7-4.4-15.4-7-22.8c5.4-1.8,9.2-6.3,10.6-12.1c0.6-2.1-1.6-1.4-2,0.2
		c-0.8,3.3-2.9,5.9-5.6,7.6c1.6-3,2.1-6.6,1.2-10.2c-0.5-1.9-2.3,0.5-2,1.7c0.9,3.5,0.1,6.9-2.2,9.4c0.5-4.8-0.6-9.5-3.2-13.6
		c-0.9-1.4-2.4,1.4-1.8,2.3c1.8,2.8,2.9,6,3,9.3c-0.3-0.5-0.5-0.9-0.8-1.3c-1-1.8-2-3.6-3-5.4c-0.8-1.4-2.4,1.3-1.8,2.3
		c1,1.6,1.9,3.3,2.7,4.8c0.1,0.3,0.3,0.5,0.4,0.8c-2.5-1.7-4.1-4.4-5.1-7.6c-0.4-1.5-2.2,1.2-1.8,2.3c0.9,2.6,2.2,5,4,6.8
		c-2.8-1.4-4.9-4.2-5.4-7.8c-0.2-1.9-2.2,0.5-2,1.7c0.6,4.2,3,7.6,6.3,9.2c-2.2-0.2-4.3-1.3-5.9-3.1c-0.9-1.1-2.3,1.9-1.5,2.8
		c3.7,4,9.2,4.5,13.5,1.4h0.3c2.2,6.3,4.4,12.7,6.2,19.2c-1.6-2-2.8-4.3-3.6-6.9c-0.3-0.8-1.1-0.3-1.4,0.1c-0.5,0.6-0.7,1.5-0.4,2.2
		c0.7,2.4,1.8,4.5,3.2,6.4c-3.4-2.4-5.5-7.5-5.8-11.4c-0.1-0.8-0.7-0.8-1.2-0.5c-0.6,0.4-0.9,1.5-0.8,2.2c0.3,3.6,1.9,7.8,4.5,10.8
		c-2.9-2.1-4.9-5.9-6-9.2c-0.4-1.5-2.2,1.2-1.8,2.3c1.2,3.8,3.6,7.9,6.8,10c-2.4-0.8-4.7-2.4-6.3-4.1c-1-1-2.4,1.9-1.5,2.8
		c4.4,4.5,11.1,6.9,16.1,2.4c0.7,3.3,1.3,6.6,1.7,9.9c0.7,6.8,0.5,13.4-0.8,19.8c-1.5-4.3-2.7-8.7-3.6-13.1c-0.4-1.9-2.3,0.5-2,1.7
		c0.6,3,1.4,6,2.2,8.9c-1.4-2.9-2.4-6.1-3.4-9.3c-0.4-1.5-2.1,1.2-1.8,2.3c1.2,4.2,2.5,8.4,4.8,11.9c-4.4-2.2-7.2-8.8-7.9-13.3
		c-0.3-1.9-2.2,0.5-2,1.7c1,6.1,5.3,15.1,12,15.5c-0.9,2.8-1.9,5.6-3.2,8.3c-4,8.6-10,16.1-12.9,25.2c-1.8-3.7-1.4-8.1-0.1-12.1
		c0-0.1,0.1-0.3,0.1-0.4c0.9-0.5,1.8-1.1,2.6-1.6c1-0.7,1.1-3.8-0.5-2.7c-2,1.5-4.5,2.8-7.2,3.6c0-0.3,0-0.5-0.1-0.7
		c4.7-3,8-8.3,8.9-14.3c0.3-2.2-1.7-1.5-2,0.2c-0.9,6.1-4.7,10.6-9.8,12.6c3.5-3.3,5.2-8.6,5.7-13.6c0.1-0.7-0.3-1.2-1-1
		c-0.8,0.2-1,1.3-1.1,1.9c-0.6,5.3-2.9,10.6-7.8,12.4c3.4-3.7,5-8.9,4.4-14.1c-0.2-1.9-2.1,0.6-2,1.7c0.5,3.9-0.8,7.5-3.3,10.2
		c1.9-10.2,1.1-20.5-1-30.7c5.6-1.4,10.4-5,13.6-10.2c0.9-1.4-0.2-3.3-1.4-1.5c-1.9,3-4.5,5.4-7.5,7c3.3-3.6,5.4-8.3,5.1-13.6
		c-0.1-2.1-2.2-0.4-2.1,0.9c0.3,5.3-2.5,9.5-6.3,12.6c2.1-4.8,2.3-10.2,0.3-15.2c-0.6-1.5-2.3,1.2-1.8,2.3c1.9,4.4,1.6,9.4-0.8,13.4
		c-1.9-7.7-4.4-15.4-7-22.8c5.4-1.8,9.2-6.3,10.6-12.1c0.6-2.1-1.6-1.4-2,0.2c-0.8,3.3-2.9,5.9-5.6,7.6c1.6-3,2.1-6.6,1.2-10.2
		c-0.5-1.9-2.3,0.5-2,1.7c0.9,3.5,0.1,6.9-2.2,9.4c0.5-4.8-0.6-9.5-3.2-13.6c-0.9-1.4-2.4,1.4-1.8,2.3c1.8,2.8,2.9,6,3,9.3
		c-0.3-0.5-0.5-0.9-0.8-1.3c-1-1.8-2-3.6-3-5.4c-0.8-1.4-2.4,1.3-1.8,2.3c1,1.6,1.9,3.3,2.7,4.8c0.1,0.3,0.3,0.5,0.4,0.8
		c-2.5-1.7-4.1-4.4-5.1-7.6c-0.4-1.5-2.2,1.2-1.8,2.3c0.9,2.6,2.2,5,4,6.8c-2.8-1.4-4.9-4.2-5.4-7.8c-0.2-1.9-2.2,0.5-2,1.7
		c0.6,4.2,3,7.6,6.3,9.2c-2.2-0.2-4.3-1.3-5.9-3.1c-0.9-1.1-2.3,1.9-1.5,2.8c3.7,4,9.2,4.5,13.5,1.4h0.3c2.2,6.3,4.4,12.7,6.2,19.2
		c-1.6-2-2.8-4.3-3.6-6.9c-0.3-0.8-1.1-0.3-1.4,0.1c-0.5,0.6-0.7,1.5-0.4,2.2c0.7,2.4,1.8,4.5,3.2,6.4c-3.4-2.4-5.5-7.5-5.8-11.4
		c-0.1-0.8-0.7-0.8-1.2-0.5c-0.6,0.4-0.9,1.5-0.8,2.2c0.3,3.6,1.9,7.8,4.5,10.8c-2.9-2.1-4.9-5.9-6-9.2c-0.4-1.5-2.2,1.2-1.8,2.3
		c1.2,3.8,3.6,7.9,6.8,10c-2.4-0.8-4.7-2.4-6.3-4.1c-1-1-2.4,1.9-1.5,2.8c4.4,4.5,11.1,6.9,16.1,2.4c0.7,3.3,1.3,6.6,1.7,9.9
		c0.7,6.8,0.5,13.4-0.8,19.8c-1.5-4.3-2.7-8.7-3.6-13.1c-0.4-1.9-2.3,0.5-2,1.7c0.6,3,1.4,6,2.2,8.9c-1.4-2.9-2.4-6.1-3.4-9.3
		c-0.4-1.5-2.1,1.2-1.8,2.3c1.2,4.2,2.5,8.4,4.8,11.9c-4.4-2.2-7.2-8.8-7.9-13.3c-0.3-1.9-2.2,0.5-2,1.7c1,6.1,5.3,15.1,12,15.5
		c-0.9,2.8-1.9,5.6-3.2,8.3c-3.7,7.9-9,14.9-12.1,23c-0.2-2.9-0.6-5.7-1.1-8.5c0-0.1-0.1-0.3-0.1-0.4c0.1-0.4,0.2-0.7,0.3-1.1
		c0.5-1.8-1.1-2.6-1.8-0.6c-1.1,3.5-1.8,7.3-1.2,10.9c-1.8-3.3-2.1-7.5-2-11.3c0-2.2-2.1-0.4-2.1,0.9c-0.1,4.7,0.3,9.7,2.8,13.5
		c-0.7-0.4-1.4-1-1.9-1.6c-0.3-1-0.5-2.1-0.7-3.1c-1.2-6.2-1.2-12.3-1.5-18.6c7.4,1,11.7-8.8,12.1-17.7c0.1-1.7-1.7-4.4-1.9-1.6
		c-0.3,6-2.6,12.3-6.6,14.5c2.9-4.3,4.1-10.6,4.6-16.6c0.2-1.7-1.6-4.4-1.9-1.6c-0.4,4.9-1.3,10.1-3.5,13.9c1-4.4,0.9-9.3,0.3-14
		c-0.4-2.6-2.1-1.9-1.8,0.5c0.7,5.3,0.5,10.9-1.8,15.3c-1.7-12-6.6-22.7-9.3-34.3c-0.9-3.7-1.6-7.4-2.1-11.1
		c6.7,0.8,12.2-9.8,14-17.4c0.4-1.5-1.2-4.9-1.7-2.6c-1.3,5.6-4.9,13.3-9.6,15.3c2.7-4.1,4.5-9.2,6.3-14.2c0.5-1.3-0.8-5.1-1.5-3.3
		c-1.4,3.9-2.8,7.8-4.6,11.2c1.2-3.5,2.4-7.1,3.4-10.8c0.5-1.5-1.1-4.9-1.7-2.6c-1.5,5.5-3.3,10.8-5.3,16
		c-0.4-8.4,0.2-16.8,1.9-25.2c0.8-4.2,1.9-8.3,3-12.3c4.4,6.6,11.3,4.8,16.3,0c1-1,0-4.9-1.1-3.8c-1.9,1.8-4.3,3.4-6.8,4
		c3.5-2.1,6.4-6.8,8.1-11.4c0.5-1.3-0.8-5.1-1.5-3.3c-1.5,4-4.1,8.4-7.2,10.5c3-3.2,5.1-8.4,5.9-12.8c0.2-0.9,0.1-2.3-0.5-2.9
		c-0.5-0.5-1.1-0.6-1.3,0.4c-0.8,5-3.6,10.9-7.3,13.4c1.7-2.1,3-4.7,4-7.5c0.4-0.9,0.3-2.1-0.1-2.9c-0.3-0.5-1-1.3-1.4-0.4
		c-1.1,3.1-2.6,5.8-4.5,8c2.7-7.9,5.7-15.6,8.7-23.2l0.3,0.1c3.8,4.8,9.4,5.2,13.6,0.8c0.9-1-0.1-5-1.1-3.8c-1.9,2-4.1,2.9-6.3,2.8
		c3.5-1.5,6.4-5.2,7.5-10.5c0.4-1.5-1.3-4.9-1.7-2.6c-1,4.5-3.4,7.6-6.4,8.9c2-2,3.7-4.8,4.9-7.9c0.5-1.3-0.8-5.1-1.5-3.3
		c-1.4,3.8-3.4,7-6.1,8.6c0.2-0.3,0.4-0.6,0.6-1c1.1-1.8,2.2-3.8,3.4-5.6c0.7-1.2-0.5-4.9-1.5-3.3c-1.3,2.1-2.6,4.1-3.7,6.2
		c-0.3,0.5-0.6,1-0.9,1.5c0.6-4.2,2-8,4.2-11.3c0.7-1.1-0.4-4.9-1.5-3.3c-3.1,4.7-4.8,10.5-5,16.7c-2-3.5-2.3-8-0.9-12.3
		c0.5-1.5-1-4.9-1.7-2.6c-1.4,4.4-1.4,9-0.2,13.1c-2.4-2.6-4.2-6.4-4.5-10.7c-0.2-2.1-2.2-3.4-1.9-0.6c0.6,7.6,3.8,14.1,8.9,17.3
		c-3.6,9-7.1,18.1-10.1,27.6c-1.9-5.6-1.4-11.9,1-17.2c0.6-1.3-0.6-5.1-1.5-3.3c-2.7,5.9-3.2,12.9-1.8,19.3
		c-3.4-4.6-5.5-10.4-4.6-17.1c0.3-1.7-1.5-4.3-1.9-1.6c-1,6.7,0.5,13,3.2,18.2c-2.8-2.6-5.1-6.1-6.5-10.3c-0.9-2.6-2.3-0.4-1.5,1.6
		c2.4,7.1,6.7,12.6,12.1,15.4c-3.5,12.5-5.7,25.4-5.2,38.7c-2.1-3.9-2.9-8.8-1.9-13.6c0.3-1.5-1.3-4.9-1.7-2.6
		c-1.3,6.5-0.4,13.4,2.5,18.7c-4.6-3.1-6.2-10.3-6-17.1c0-0.9-0.1-2.3-0.8-2.7c-0.6-0.4-1.1,0.2-1.1,1.1c-0.2,6.4,0.9,13.5,3.8,18.3
		c-4.8-3.5-8-10-8-17.8c0-2.2-1.9-3.4-1.9-0.6c0,0.8,0,1.5,0.1,2.3c-0.4-0.6-0.9-0.9-1.3-0.5c-1.7,1.7-3.9,3.3-6.3,4.1
		c3.2-2.2,5.6-6.2,6.8-10c0.4-1.1-1.4-3.8-1.8-2.3c-1.1,3.3-3.1,7.1-6,9.2c2.6-2.9,4.2-7.2,4.5-10.8c0.1-0.7-0.2-1.8-0.8-2.2
		c-0.5-0.3-1.1-0.3-1.2,0.5c-0.3,4-2.4,9-5.8,11.4c1.4-1.9,2.5-4.1,3.2-6.4c0.3-0.7,0.1-1.6-0.4-2.2c-0.3-0.3-1.1-0.9-1.4-0.1
		c-0.8,2.6-2,4.9-3.6,6.9c1.8-6.5,4-12.9,6.2-19.2h0.3c4.3,3.1,9.8,2.7,13.5-1.4c0.8-0.9-0.6-3.8-1.5-2.8c-1.6,1.8-3.7,2.9-5.9,3.1
		c3.3-1.6,5.8-5,6.4-9.2c0.2-1.2-1.8-3.6-2-1.7c-0.5,3.6-2.6,6.4-5.4,7.8c1.8-1.8,3.1-4.3,4-6.8c0.4-1.1-1.4-3.8-1.8-2.3
		c-1,3.1-2.7,5.9-5.1,7.6c0.2-0.3,0.3-0.6,0.4-0.8c0.9-1.6,1.8-3.2,2.7-4.8c0.6-1-1-3.7-1.8-2.3c-1,1.8-2.1,3.6-3,5.4
		c-0.2,0.4-0.5,0.9-0.8,1.3c0.1-3.3,1.2-6.5,3-9.3c0.6-1-0.9-3.7-1.8-2.3c-2.6,4.1-3.7,8.8-3.2,13.6c-2.4-2.4-3.1-5.9-2.2-9.4
		c0.3-1.2-1.5-3.6-2-1.7c-0.9,3.6-0.4,7.2,1.2,10.2c-2.7-1.7-4.8-4.3-5.6-7.6c-0.4-1.6-2.5-2.3-2-0.2c1.4,5.8,5.2,10.3,10.6,12.1
		c-2.6,7.5-5.2,15.1-7,22.8c-2.5-4-2.7-9-0.8-13.4c0.5-1.1-1.2-3.9-1.8-2.3c-2.1,5-1.9,10.4,0.3,15.2c-3.9-3-6.6-7.2-6.3-12.6
		c0.1-1.4-2-3.1-2.1-0.9c-0.2,5.3,1.8,9.9,5.1,13.6c-3-1.6-5.6-3.9-7.5-7c-1.2-1.8-2.3,0.1-1.4,1.5c3.2,5.1,8,8.8,13.6,10.2
		c-2.1,10.2-2.9,20.4-1,30.7c-2.5-2.7-3.8-6.4-3.3-10.2c0.1-1.2-1.8-3.6-2-1.7c-0.6,5.2,1,10.4,4.4,14.1c-4.9-1.8-7.2-7.1-7.8-12.4
		c-0.1-0.7-0.3-1.8-1.1-1.9c-0.7-0.2-1.1,0.4-1,1c0.5,5,2.3,10.3,5.7,13.6c-5.1-2-9-6.6-9.8-12.6c-0.2-1.7-2.3-2.4-2-0.2
		c1,6.9,5.2,12.7,11,15.5c-3.4-0.6-6.9-2.3-9.4-4.2c-1.5-1.1-1.5,1.9-0.5,2.7c4.6,3.3,12,6.5,17.6,3.9c0.2,0.7,0.4,1.3,0.7,2
		c2.1,5.6,4.8,10.9,7.8,16s6.2,9.9,7.8,15.7c-4.4-1.7-8.1-5.1-9.8-9.7c-0.7-1.8-2.5-1.2-1.8,0.6c1.9,4.9,5.3,9,9.7,11.2
		c-4.8,0.4-9.5-1.3-13.2-4.7c-1.4-1.2-1.3,1.8-0.5,2.7c3.2,3,7.1,4.7,11.1,5.1c-3.7,1-8.1,0-11.1-1.7c-1.3-0.8-1,2.4,0,3
		c4.7,2.8,12.6,3.6,16.7-0.9c0.8,4.1,1.4,8.2,2.9,12.2c1.6,4.4,3.7,8.5,6.5,12.2l0.1,0.1c-6.2-2.5-11.5-6.7-15.2-12.5
		c-1.2-1.9-2.3,0-1.4,1.4l0,0c3.3,5.3,7.7,9.5,13,12.4c-6,0.6-12-2.1-15.5-7.6c-1.1-1.8-2.2,0.1-1.4,1.5l0,0
		c4.7,7.7,13.4,11.3,21.8,8.4c0.1,0,0.1-0.1,0.2-0.1c0.3,0,0.4-0.3,0.5-0.6c0.1,0,0.1,0.1,0.2,0.1c2.6,3.1,5.6,5.8,8.8,8.2
		c0,2.9,0.2,6,1.2,8.6c-0.5-0.5-1.1-1-1.5-1.5c-1.9-2.3-2.3-5.3-2.5-8.2c-0.2-2.1-2.2-0.4-2.1,0.9c0.2,3.2,0.6,6.5,2.4,9.2
		c1.3,1.9,3.2,3.4,5.1,4.6c-1.2,0.1-2.5,0.1-3.7,0.2c-0.1-0.5-0.3-1-0.5-1.5c-0.3-1-2.2-1.6-1.7,0c0.2,0.5,0.4,1.1,0.5,1.6
		c-0.7,0-1.4,0.1-2.1,0.1c-0.1-0.2-0.2-0.5-0.3-0.7c-0.4-0.9-2.4-1.6-1.7,0c0.1,0.3,0.2,0.5,0.3,0.8c-0.9,0-1.8,0.1-2.7,0.1
		c-0.7-0.8-1.4-1.6-2.1-2.3c-1-1.1-2.1-0.1-1.1,1c0.4,0.5,0.9,0.9,1.3,1.4c-1.9,0.1-3.8,0.1-5.6,0.1c-1.1-1.6-2.2-3.3-3.3-5
		c5.1-2.5,5.1-9.3,2.7-14c-0.4-0.9-2.4-1.5-1.7,0c1.6,3.2,1.9,7.4-0.1,10.1c0.7-3.4-0.4-7.1-1.8-10.4c-0.4-0.9-2.4-1.6-1.7,0
		c1.1,2.7,2.1,5.7,1.8,8.6c-0.6-2.7-2.2-5.1-4-7.3c-1-1.2-1.9-0.1-1.1,1c2,2.4,3.6,5.4,3.3,8.6c-4.6-5.5-11-8.9-16.2-13.7
		c-1.7-1.5-3.2-3.1-4.6-4.8c4.6-2.4,5.1-10,4.1-14.6c-0.2-0.9-2.2-2-1.9-0.6c0.8,3.4,0.7,8.8-1.8,11.8c0.6-3.2,0.3-6.6,0-9.9
		c-0.1-0.9-2-2.3-1.9-1.1c0.2,2.5,0.5,5.1,0.3,7.6c-0.2-2.3-0.5-4.6-0.9-6.9c-0.1-0.9-2.1-2-1.9-0.6c0.6,3.4,1,6.9,1.2,10.4
		c-2.7-4.1-4.8-8.7-6.2-13.7c-0.7-2.5-1.2-5-1.6-7.5c4.8,1.6,8.8-2.2,10.7-6.7c0.4-0.9-1.4-2.5-1.8-1.5c-0.7,1.7-1.8,3.5-3.3,4.8
		c1.6-2.5,2.2-6.1,1.9-9.1c0-0.9-2-2.3-1.9-1.1c0.2,2.6-0.2,6-1.6,8.3c1-2.9,0.9-6.4,0.1-9c-0.1-0.5-0.6-1.2-1.2-1.3
		c-0.4-0.1-0.9,0.1-0.7,0.7c0.9,2.9,0.9,7.1-0.9,9.8c0.5-1.8,0.6-3.6,0.4-5.5c0-0.6-0.4-1.2-0.9-1.5c-0.3-0.1-1-0.3-1,0.4
		c0.2,2,0,4-0.6,6c-0.6-5.1-0.8-10.3-1.1-15.4l0.2-0.1c3.9,0.9,7.7-1.2,9.1-5.1c0.3-0.9-1.5-2.5-1.8-1.5c-0.6,1.8-1.8,3.2-3.3,4
		c1.9-2.2,2.6-5.3,1.9-8.4c-0.2-0.9-2.3-2-1.9-0.6c0.7,2.7,0,5.3-1.6,7.2c0.8-1.9,1-4,0.9-6c0-0.9-2-2.3-1.9-1.1
		c0.2,2.5-0.2,5-1.5,6.9c0-0.3,0.1-0.5,0.1-0.7c0.2-1.4,0.3-2.8,0.6-4.2c0.1-0.9-1.7-2.3-1.9-1.1c-0.2,1.6-0.5,3.2-0.6,4.7
		c0,0.4-0.1,0.8-0.2,1.2c-0.8-2.4-1-4.9-0.5-7.5c0.2-0.9-1.7-2.3-1.9-1.1c-0.7,3.7-0.1,7.4,1.6,10.6c-2.4-1-3.9-3.2-4.2-5.9
		c-0.1-0.9-2.1-2.1-1.9-0.6c0.4,2.8,1.7,5.2,3.7,6.8c-2.4-0.3-4.6-1.6-6.1-3.6c-0.7-1-2.4-0.8-1.4,0.5c2.6,3.6,6.6,5.6,10.9,5.2
		c0.3,6.1,0.6,12.2,1.5,18.2c-2.9-2.1-4.4-5.5-4.4-9.2c0-0.9-1.9-2.4-1.9-1.1c-0.1,4.1,1.6,7.9,4.5,10.6c-3.6-0.9-6.7-3.1-8-6.9
		c-0.3-1-2.3-1.5-1.7,0c1.3,3.8,4.1,6.4,7.5,8c-2.6-0.2-5.1-1-7.3-2.6c-1.3-0.9-1.6,0.7-0.5,1.4c3.7,2.6,8.1,3.7,12.5,3
		c1.4,7.8,3.7,15.3,8,21.9c-2.5-1.1-4.5-3.3-5.2-6.2c-0.2-0.9-2.3-2-1.9-0.6c1.1,3.9,3.7,7,7.1,8.6c-3.9,0.3-7.1-2.8-9-6.3
		c-0.3-0.4-0.7-1.1-1.3-1c-0.5,0.1-0.6,0.6-0.4,1c1.8,3.4,4.5,6.5,7.9,7.8c-4.2,0.2-8.2-1.9-10.5-5.8c-0.6-1.1-2.3-1-1.4,0.5
		c2.7,4.5,7.3,7.3,12.1,7.5c-2.6,0.6-5.5,0.5-7.8,0c-1.4-0.3-0.5,1.8,0.4,2c4.2,0.9,10.3,0.8,13.5-2.7c0.3,0.4,0.7,0.8,1.1,1.2
		c3.1,3.3,6.5,6.2,10,8.9c3.5,2.7,7.2,5.1,10,8.6c-3.6,0.2-7.1-1.1-9.7-3.8c-1-1.1-2.1-0.1-1.1,1c2.7,2.9,6.2,4.7,10,4.9
		c-3.3,1.7-7,2-10.6,0.8c-1.3-0.5-0.4,1.7,0.4,2c3.1,1.1,6.3,1.1,9.3,0.1c-1.3,1.1-3,1.8-4.7,2.1c-140.2-1.9-272.2-72-414.5-69.7
		c-10,0.2-19.8,0.9-29.5,2.2l-41.5,8.3c-61.5,16.2-118.5,47.2-179.9,62.2c37.6-35.2,59.7-83,56.4-88.9c-4.8-8.9-16.2-10.5-19.8-9.2
		c-0.3,0.2-0.7,1-1.5,2.1c-5.9,10.3-23.7,57.7-48.2,86.8c-4.7,5.7-9.3,10.5-13.7,14.6c-6.1,1-12.3,1.7-18.6,2.3
		c15-25.9,34.8-46.9,45.2-63.2c13.2-20.7,41.7-81.6,38.8-92.8c-1.7-6.2-16.2-13.6-25.8-4.7c-0.9,0.9-2.1,2.5-2.8,4.4
		c-0.6,1.5-1.4,3.4-2,5.3l-0.1,0.2c-6.1,18.9-11.5,57.2-28.9,86.1c-0.1-10.8-0.7-25-1.2-27.1c-1.1-3.2-18.9-4.2-20.1,7.3l0,0
		c-0.1,0.4-0.2,0.9-0.2,1.4c-0.1,8.3,3.3,24.6,5.8,35.1c0.4,1.8,0.9,3.4,1.1,4.9c-9.7,16-17.2,32-22.2,43.7c-1.3,0-2.6,0.1-3.9,0.1
		c-1.9-34.6,1.9-70.6,7.4-102.1c10.6-3.4,31-10.2,39.2-14.8l0,0c2.2-1.2,3.4-2.3,3.6-3.2c0.8-5.2-4.2-17.3-8-20.1
		c-2.2-1.9-19.6,9.4-31,17.3c0.7-3.3,1.4-6.6,2.1-9.7c0.6-0.3,1-0.7,0.8-1.4c0-0.3-0.2-0.5-0.4-0.6c5.9-26.3,12-46.6,14.7-55.3
		c0.9-3.1-0.2-6.5-3-8.1c-6.6-4-13.2-4.1-17.5-3.5c-2.1,0.3-3.9,1.7-4.9,3.5l0,0c-0.3,0.4-0.5,0.8-0.6,1.2
		c-4.9,16.4-8.5,32.6-11.3,48.4c-1.4-1.5-2.9-3.1-4.4-4.9c-11.5-13.6-19.8-35.7-22.5-40.6c-0.4-0.6-0.6-0.9-0.7-1
		c-1.7-0.6-7,0.2-9.2,4.3c-1.8,3.2,12.6,33.1,35.8,49.2c-2.5,16-4.1,31.5-4.9,46.1c-16.5-23.3-28.3-54.3-32.6-61.7
		c-0.6-1-1-1.6-1.2-1.7c-2.9-1-12.1,0.3-15.9,7.4l49,73.1c-0.9,33.5,1.7,61.1,3.9,78.1c-0.2,0-0.5,0-0.7,0c-1.3,0-2.5-0.1-3.8-0.2
		c-7.3-10.5-14.9-22.5-18.2-31.2c-12.9-35-8-57-15.2-57.4c-4.5-0.2-9.6,1.6-12.8,3.2c-1.8,0.9-3,2.6-3.1,4.5
		c-0.1,0.4-0.2,0.9-0.1,1.2c3.9,34.6,16.8,59.8,29.2,76.5c0.3,0.4,0.6,0.8,0.9,1.2c-2.1-0.3-4.1-0.7-6.2-1.1
		c-12.5-9.4-22.7-19.2-31-28.9c-0.6-16.4,5.1-43.7-1.6-53.6c-1.6-2.4-4-2.7-7.2-2.7c-2.3,0-5.3,0-6.4,2.3c-0.3,0.4-0.4,0.6-0.5,1
		l-0.1,0.2c-2.9,7-1.8,20.7-0.6,30.3c-16.7-27.1-20.2-50.3-20.9-57.2c0-1.4-1.1-2.7-2.3-3.3c-6-2.8-12.6-0.8-16,1
		c-1.6,0.7-2.5,2.3-2.3,4.1l-0.1,0.2c3.9,29.8,15.7,53.7,30.5,72.8c-16.4-11.2-30.1-23-35.1-26.2c-1-0.5-1.6-0.9-1.9-0.9
		c-2.7,0.4-8.9,4.9-10.5,11.6c-28-17.4-56.4-34.7-89.8-44.3c-83.6-24-128.4-17.1-168.2-23.5c5.6-16.2,15.1-16.4,25.7-27.8
		c3.4-3.8,7.5-8.4,6.4-13.6c-0.5-2.7-2.5-4.9-3-7.7c-0.7-3.4,1.1-7.1,3.4-9.6c5.3-5.6,13.4-7.3,18.5-13c3.9-4.5,5.5-11.4,3.7-17.3
		c-1.1-3.4-3-6.6-2.6-10.1c0.3-2.3,1.7-4.4,3.2-6.2c7.1-8.2,18.1-14.1,20.2-25.1c0.9-4.8-0.1-9.6-0.8-14.4
		c-0.9-7.3-1.1-14.8,0.8-21.8c1.8-7,5.8-13.7,11.6-17.7c-6.3,2.6-12.7,5.2-18.3,9.2c-5.5,4-10.3,9.6-12.1,16.5
		c-1.3,5.2-0.9,11.1-3.9,15.6c-6.6,9.9-24.1,5.8-29.8,16.2c-2.8,5.1-1.4,11.5-2.8,17.1c-1.4,6.2-6,11-10.9,14.7s-10.1,6.7-14.5,11.2
		c-6.8,7.1-9.6,13.2-9.6,26.3c0,14,5.5,15.5,4.9,27.3c-0.6,12.6-2.6,20.1-3.3,27.4c-2.4-0.6-4.8-1.3-7.2-2.1
		c-0.5-26.8,9.7-29.4,17.5-48.2c2.3-5.8,5-12.6,2.6-18.4c-1.2-3.1-3.7-5-4.9-8c-1.5-3.8-0.9-8.8,0.8-12.6c3.6-8.5,11-13.4,14.4-22
		c2.6-6.8,2.3-15.5-1-21.8c-1.9-3.7-4.6-6.7-5.2-11.1c-0.4-2.9,0.5-5.8,1.4-8.4c4.7-12.3,13.7-23.2,12.9-36.9
		c-0.4-6-2.7-11.3-4.5-16.8c-2.8-8.3-4.9-17.2-5-26.2s2-18.3,6.5-25.1c-5.4,5.3-10.9,10.7-15.1,17.4c-4.3,6.7-7.3,15-7.3,23.8
		c0.1,6.7,2,13.5,0.3,20c-3.7,14-21.6,15.3-24.4,29.8c-1.3,7,1.6,14.2,1.9,21.3c0.2,7.8-2.9,15.2-6.6,21.3s-8,11.6-10.9,18.5
		c-4.7,10.9-5.8,19-2.3,34.6c3.7,16.6,9.4,16.4,11.9,30.7c2.7,14.9,2.8,24.4,3.9,33.2c-1-0.5-2-0.9-3.1-1.4c-2.7-16.1,3.6-23,5-39.8
		c0.4-6.2,0.9-13.6-3.1-18.3c-2.1-2.5-5-3.5-7.1-6c-2.6-3.1-3.5-8.1-3.1-12.2c0.8-9.3,6.3-16.3,7-25.6c0.4-7.3-2.5-15.4-7.6-20.4
		c-2.9-2.9-6.4-4.9-8.3-8.8c-1.2-2.6-1.3-5.7-1.2-8.5c0.7-13.2,6-26.5,1-39.3c-2.2-5.6-6-9.9-9.4-14.4c-5.2-7-9.9-14.7-12.7-23.2
		s-3.7-18-1.5-25.9C36.5,42.3,33,49.2,30.9,57c-2,7.7-2.4,16.7,0.3,25c2.1,6.3,6,12.1,6.4,18.8c0.7,14.6-15.8,21.7-14.1,36.3
		c0.9,7.1,5.9,12.9,8.2,19.6c2.6,7.4,1.8,15.3,0.2,22.4c-1.7,7-4,13.6-4.8,21.1c-1.1,11.9,0.3,19.9,8.4,33.6
		c8.5,14.5,13.9,12.5,20.6,25.2c1.1,2,2,3.9,2.9,5.7c-17.1-12.1-36-29.9-58.9-56l0,0v232.2h1599.8V168.1
		c-19.4,10.6-43.2,18.7-58.3,31.8c-9,7.8-2.2,20.4-11.1,28.3c-6.8,6-14.3,11.7-22.2,17.2c-2.6-15.9,0-31.4,7.8-50.2
		c-0.2,1.1,45.5-13.1,50.8-41.4c0.7-4-0.6-8.7-3.9-10.6c-1.7-1.1-3.9-1.4-5.9-1.3c-6.4,0.2-12.6,4.3-15.8,10.1
		c-4.2,7.9-3.8,14.2-8.6,21.7c-7.9,12.4-12.7,15.5-15.8,19l1-2.5c6-14.6,12.6-30.9,14.8-54.6l0,0l0,0c0.4-4.5,0.3-10.1-0.2-16.2
		c7.1-16.4,49.5-24.7,54.3-50.8c0.7-4-0.6-8.7-3.9-10.6c-1.7-1.1-3.9-1.4-5.9-1.3c-6.4,0.2-12.6,4.3-15.8,10.1
		c-4.2,7.9-3.8,14.2-8.6,21.7c-13,20.4-17.7,15.5-20.3,29.1c0-0.7-0.1-0.6,0,0.2v-0.1c-0.1-0.8-0.2-1.6-0.3-2.3
		c-0.8-7.2-2.3-14.9-4.3-22.1c-1-3.8-2.7-8.2-4.5-12.9c-3.1-8.2-6.5-17.1-7.1-24.7c0-0.3-0.3-0.5-0.6-0.5c-0.3,0-0.5,0.3-0.5,0.6
		c0.7,7.8,4.1,16.8,7.2,25c1.7,4.6,3.4,9,4.4,12.8c1,3.7,1.9,7.4,2.6,11.2c-3-5.8-8.1-6.4-18.1-22.3c-4.8-7.5-4.3-13.8-8.6-21.7
		c-3.2-5.9-9.3-9.9-15.8-10.1c-2-0.1-4.1,0.2-5.9,1.3c-3.3,1.9-4.6,6.6-3.9,10.6c4.6,25.1,44.2,33.8,53.4,49
		c0.2,1.3,0.4,2.6,0.5,3.9c0.3,2.3,0.5,4.6,0.6,6.8c0,0.2,0.3,9.4,0,13.1l0,0l0,0l0,0c-0.9,9.5-2.5,17.8-4.5,25.3
		c-4.2-18.9-8.6-10.1-26.6-29.6c-6-6.5-6.7-12.8-12.2-19.7c-4.1-5.2-10.9-8-17.2-7c-2,0.3-4,1-5.6,2.4c-3,2.5-3.4,7.4-2,11.1
		c1.7,4.5,4.5,8.3,8.1,11.4c-1.3-0.4-2.6-0.5-3.9-0.5c-6.1,0.2-11.8,4-14.8,9.5c-4,7.4-3.6,13.3-8.1,20.4
		c-12.2,19.2-18.8,27-19.1,27.6c0,0-2.4-16.3-4.2-23.1c-1-3.6-2.6-7.7-4.2-12.1c-2.9-7.7-6.1-16-6.7-23.2c0-0.3-0.3-0.5-0.6-0.5
		c-0.3,0-0.5,0.3-0.5,0.6c0.6,7.3,3.8,15.8,6.8,23.5c1.6,4.3,3.2,8.4,4.2,12c0.9,3.4,1.8,7,2.4,10.5c-2.8-5.5-7.6-6-17-20.9
		c-4.5-7.1-4.1-13-8.1-20.4c-3-5.5-8.8-9.3-14.8-9.5c-1.9-0.1-3.9,0.2-5.5,1.2c-3.1,1.8-4.4,6.2-3.7,9.9
		c4.4,23.6,41.6,31.7,50.2,46.1c0.2,1.2,0.3,2.5,0.5,3.7c0.3,2.2,0.4,4.3,0.6,6.4L1425,190.8L1425,190.8z M1463.2,274.2
		c14.8-9.3,30.1-18.4,44.1-28.1l0,0c-0.8-4.4-1.1-8.6-1.2-12.5c-8.1-15.9-49.2-24.3-53.9-50c-0.7-4,0.6-8.7,3.9-10.6
		c1.7-1.1,3.9-1.4,5.9-1.3c6.4,0.2,12.6,4.3,15.8,10.1c4.2,7.9,3.8,14.2,8.6,21.7c12.2,19.3,17.1,16,19.8,27
		c0.3-15.2,5.3-27.3,10.8-40.8c3.5-8.7,7.3-17.9,10.2-28.9c-4.2-13.8-33.6-16.1-51.5-28.4c1.3,2.1,1.8,5,1.3,7.6
		c-4.5,24.5-44.4,32.3-51,47.7c0.5,5.7,0.6,11,0.2,15.3l0,0l0,0c-2,22.3-8.3,37.6-13.9,51.3l-0.9,2.3c3-3.3,7.5-6.2,14.9-17.8
		c4.5-7.1,4.1-13,8.1-20.4c3-5.5,8.8-9.3,14.8-9.5c1.9-0.1,3.9,0.2,5.5,1.2c3.1,1.8,4.4,6.2,3.7,9.9c-4.9,26.7-47.6,39.5-47.4,38.5
		c-9.5,20.9-10.3,39.5-4.5,60.2 M1405.5,319.8c-2.7-9-4.3-17.6-4.4-24.7c-5.5-10.7-27-17.9-40.3-30c-3,3.6-7,6.1-11.5,7.2
		c2.1,10.2,2.9,20.4,1,30.7c2.5-2.7,3.8-6.4,3.3-10.2c-0.1-1.2,1.8-3.6,2-1.7c0.6,5.2-1,10.4-4.4,14.1c4.9-1.8,7.2-7.1,7.8-12.4
		c0.1-0.7,0.3-1.8,1.1-1.9c0.7-0.2,1.1,0.3,1,1c-0.5,5-2.3,10.3-5.7,13.6c5.1-2,9-6.6,9.8-12.6c0.2-1.7,2.3-2.4,2-0.2
		c-1,6.9-5.2,12.7-11,15.5c3.4-0.6,6.9-2.3,9.4-4.2c1.5-1.1,1.5,1.9,0.5,2.7c-4.6,3.3-12,6.5-17.6,3.9c-0.2,0.7-0.4,1.3-0.7,2
		c-2.1,5.6-4.8,10.9-7.8,16s-6.2,9.9-7.8,15.7c4.4-1.7,8.1-5.1,9.8-9.7c0.7-1.8,2.5-1.2,1.8,0.6c-1.9,4.9-5.3,9-9.7,11.2
		c4.8,0.4,9.5-1.3,13.2-4.7c1.4-1.2,1.3,1.8,0.5,2.7c-3.2,3-7.1,4.7-11.1,5.1c3.7,1,8.1,0,11.1-1.7c1.3-0.8,1,2.4,0,3
		c-4.7,2.8-12.6,3.6-16.7-0.9c-0.8,4.1-1.4,8.2-2.9,12.2c-1.6,4.4-3.7,8.5-6.5,12.2l-0.1,0.1c6.2-2.5,11.5-6.7,15.2-12.5
		c1.2-1.9,2.3,0,1.4,1.4l0,0c-3.3,5.3-7.7,9.5-13,12.4c6,0.6,12-2.1,15.5-7.6c1.1-1.8,2.2,0.1,1.4,1.5l0,0c-3.1,4.9-7.8,8.2-13,9.1
		c0,0.1,0,0.3-0.1,0.5c-1,2.3-1.9,5-1.8,7.5l0.4-0.2c0.8-2.2,2.1-4.2,3.6-6c1-1.2,1.9-0.1,1.1,1c-1,1.2-1.9,2.6-2.5,4
		c4.9-2.4,9.6-5.1,14.1-8c0.4-0.4,0.9-0.8,1.3-1.2c1.7-1.5,3.2-3.1,4.6-4.8c-4.6-2.4-5.1-10-4.1-14.6c0.2-0.9,2.2-2,1.9-0.6
		c-0.8,3.4-0.7,8.8,1.8,11.8c-0.6-3.2-0.3-6.6,0-9.9c0.1-0.9,2-2.3,1.9-1.1c-0.2,2.5-0.5,5.1-0.3,7.6c0.2-2.3,0.5-4.6,0.9-6.9
		c0.1-0.9,2.1-2,1.9-0.6c-0.6,3.4-1,6.9-1.2,10.4c2.7-4.1,4.8-8.7,6.2-13.7c0.7-2.5,1.2-5,1.6-7.5c-4.8,1.6-8.8-2.2-10.7-6.7
		c-0.4-0.9,1.4-2.5,1.8-1.5c0.7,1.7,1.8,3.5,3.3,4.8c-1.6-2.5-2.2-6.1-1.9-9.2c0-0.9,2-2.3,1.9-1.1c-0.2,2.6,0.2,6,1.6,8.3
		c-1-2.9-0.9-6.4-0.1-9c0.1-0.5,0.6-1.2,1.2-1.3c0.4-0.1,0.9,0.1,0.7,0.7c-0.9,2.9-0.9,7.1,0.9,9.8c-0.5-1.8-0.6-3.6-0.4-5.5
		c0-0.6,0.4-1.2,0.9-1.5c0.3-0.1,1-0.3,1,0.4c-0.2,2,0,4,0.6,6c0.6-5.1,0.8-10.3,1.1-15.4l-0.2-0.1c-3.9,0.9-7.7-1.2-9.1-5.1
		c-0.3-0.9,1.5-2.5,1.8-1.5c0.6,1.8,1.8,3.2,3.3,4c-1.9-2.2-2.6-5.3-1.9-8.4c0.2-0.9,2.3-2,1.9-0.6c-0.7,2.7,0,5.3,1.6,7.2
		c-0.8-1.8-1-4-0.9-6c0-0.9,2-2.3,1.9-1.1c-0.2,2.5,0.2,5,1.5,6.9c0-0.3-0.1-0.5-0.1-0.7c-0.2-1.4-0.3-2.8-0.6-4.2
		c-0.1-0.9,1.7-2.3,1.9-1.1c0.2,1.6,0.5,3.2,0.6,4.7c0,0.4,0.1,0.8,0.2,1.2c0.8-2.4,1-4.9,0.5-7.5c-0.2-0.9,1.7-2.3,1.9-1.1
		c0.7,3.7,0.1,7.4-1.6,10.6c2.4-1,3.9-3.2,4.2-5.9c0.1-0.9,2.1-2.1,1.9-0.6c-0.4,2.8-1.7,5.2-3.7,6.8c2.4-0.3,4.6-1.6,6.1-3.6
		c0.7-1,2.4-0.8,1.4,0.5c-2.6,3.6-6.6,5.6-10.9,5.2c-0.3,6.1-0.6,12.2-1.5,18.2c2.9-2.1,4.4-5.5,4.4-9.2c0-0.9,1.9-2.4,1.9-1.1
		c0.1,4.1-1.6,7.9-4.5,10.6c3.6-0.9,6.7-3.1,8-6.9c0.3-1,2.3-1.5,1.7,0c-1.3,3.8-4.1,6.4-7.5,8c2.6-0.2,5.1-1,7.3-2.6
		c1.3-0.9,1.6,0.7,0.6,1.4c-3.7,2.6-8.1,3.7-12.5,3c-1.4,7.8-3.7,15.3-8,21.9c2.5-1.1,4.5-3.3,5.2-6.2c0.2-0.9,2.3-2,1.9-0.6
		c-0.6,2.1-1.6,3.9-2.9,5.5c16.7-13.7,31.2-30.2,46.4-45.8 M1359.2,263.7c-1.5,1.6-3.3,3-5.3,4c1.5-1.7,2.8-3.6,3.7-5.7
		C1358.2,262.6,1358.7,263.2,1359.2,263.7L1359.2,263.7L1359.2,263.7z M1403.8,273.2L1403.8,273.2z M1412.7,135.6L1412.7,135.6z
		 M1509,210.1L1509,210.1z M1518.5,63.8L1518.5,63.8z M1354.7,369.4l-0.5,0.4c-0.1,0-0.2,0-0.3,0
		C1354.2,369.7,1354.4,369.6,1354.7,369.4L1354.7,369.4z M1325,387.6c-0.2,0.1-0.5,0.2-0.7,0.3c-0.9-2.6-0.5-5.9,0.8-8.4
		c0.1-0.2,0.2-0.4,0.1-0.6c0.7,0,1.3,0,2,0c-0.1,0.1-0.2,0.2-0.2,0.4C1325.9,381.8,1324.9,384.8,1325,387.6L1325,387.6L1325,387.6z
		 M1322.2,388.8c-4.7,2-9.7,3.7-14.9,5c0.5-0.7,1-1.4,1.5-2.1l0,0c0.8-1.4-0.3-3.3-1.4-1.5c-0.6,0.9-1.3,1.8-2,2.6
		c-0.8-0.9-1.7-1.9-2.5-2.9c6.1-2.9,11.6-7.2,16-12.5c0.1,0,0.1,0,0.2-0.1c0.1,0.3,0.2,0.5,0.5,0.6c0.1,0,0.1,0.1,0.2,0.1
		c1.3,0.5,2.7,0.7,4,0.9c-0.3,0.2-0.5,0.4-0.7,0.7C1322,382.3,1321.4,385.8,1322.2,388.8L1322.2,388.8L1322.2,388.8z M1303.1,394.9
		c-2.9,0.7-5.9,1.2-9,1.7c2.4-1.6,4.7-3.5,6.7-5.6c0.9,1.2,1.8,2.4,2.8,3.6C1303.4,394.6,1303.2,394.7,1303.1,394.9L1303.1,394.9
		L1303.1,394.9z M1261.7,398.6c-1.7,0-3.4,0-5.1,0c1.2-0.9,2.2-2.1,2.8-3.6C1260.2,396.2,1260.9,397.4,1261.7,398.6L1261.7,398.6
		L1261.7,398.6z M1315.4,332.7c1.1,0.5,2.3,0.8,3.6,0.9c-0.3,6.8,3,14.5,10.2,14.9c-0.9,4.8-1.6,9.6-3.4,14.1
		c-1.5,3.5-3.3,6.8-5.5,9.8c-0.6-2.3-1.1-4.6-0.9-6.9c0.1-3.1,1.2-6,2.3-8.8c0.7-1.8-1-2.5-1.8-0.6c-1.3,3.4-2.4,6.8-2.6,10.5
		c-0.1,1.6,0,3.2,0.3,4.7c-2.2-3-2.5-7.2-2.4-11.1c0-2.2-2.1-0.4-2.1,0.9c0,1.2,0,2.4,0,3.6c-0.7,0.5-1.3,1-2,1.4
		c-0.6-1.7-0.7-3.5-0.8-5.2c-0.1-0.9-0.5-1.1-0.9-1c0.4-0.8,0.8-1.7,1.2-2.6c0.7-1.8-1-2.5-1.8-0.6c-1.2,3.2-3.3,5.8-5.9,7.7
		c0.1-0.8,0.2-1.5,0.2-2.2c0.1-1.1-0.6-2.6-1.2-2.8c1.5-2.9,3.3-5.7,4.9-8.6c3-5.1,5.7-10.4,7.8-16
		C1315,334,1315.2,333.4,1315.4,332.7L1315.4,332.7L1315.4,332.7z M1301.2,360.8c-0.1,1.6-0.3,3.3-0.6,5c-0.5,0.2-1,0.5-1.5,0.7
		C1299.6,364.5,1300.4,362.6,1301.2,360.8L1301.2,360.8L1301.2,360.8z M1297.7,373.1c0.1-0.4,0.1-0.7,0.2-1.1
		c0.2,0.2,0.4,0.4,0.5,0.6c-0.3,0.5-0.6,1-0.9,1.5L1297.7,373.1L1297.7,373.1z M1295.6,382.4c1.1,2.1,2.2,4.1,3.5,6.1
		c-0.9,0.3-1.8,0.6-2.7,0.8c-0.9,0.3-1.4,2.7-0.5,3c-2.3,1.7-4.8,3.1-7.4,4.1l0.1-0.1c1.4-1.9,2.6-3.9,3.7-6
		c0.6,0.2,1.3,0.4,1.9,0.6c1.5,0.4,1-2.6,0-3c-0.2-0.1-0.4-0.1-0.6-0.2c0.5-1.2,1-2.4,1.5-3.7C1295.2,383.6,1295.4,383,1295.6,382.4
		L1295.6,382.4L1295.6,382.4z M1287.3,394.6c-0.6-2.2-1-4.4-0.9-6.6c1.3,0.7,2.6,1.3,4,1.8C1289.4,391.4,1288.4,393,1287.3,394.6
		L1287.3,394.6L1287.3,394.6z M1291.6,387.3c-1.7-0.6-3.3-1.3-5-2.1c0.2-1.1,0.5-2.1,0.8-3.1c2,0.5,4.1,0.5,6.2,0.1
		c-0.3,0.9-0.6,1.7-0.9,2.6C1292.4,385.6,1292,386.5,1291.6,387.3L1291.6,387.3z M1323.4,330.2L1323.4,330.2l-0.3,0.1L1323.4,330.2
		L1323.4,330.2z M1328.2,331.6c-0.8,3.1-1.3,6.4-0.8,9.5c-1.4-2.5-1.9-5.4-2-8.4C1326.3,332.4,1327.3,332,1328.2,331.6L1328.2,331.6
		L1328.2,331.6z M1323.3,333.3c0.1,3.9,0.8,7.9,2.8,11c-3.3-2-5-6.4-5.1-10.6C1321.8,333.5,1322.5,333.4,1323.3,333.3L1323.3,333.3
		L1323.3,333.3z M1308.3,361.9c0.1,1.8,0.3,3.6,0.7,5.3c-0.6,0.3-1.2,0.5-1.8,0.7c0.3-1.3,0.5-2.6,0.7-4c0.1-0.4,0-0.9-0.1-1.4
		C1308,362.4,1308.1,362.1,1308.3,361.9L1308.3,361.9z M1305.5,365.3c-0.2,1.1-0.5,2.2-0.9,3.2c-0.8,0.1-1.5,0.2-2.3,0.2
		c0.1-0.3,0.1-0.6,0.2-0.9C1303.6,367,1304.6,366.2,1305.5,365.3L1305.5,365.3L1305.5,365.3z M1295.9,370.6c-0.3,1.5-0.8,3-1.3,4.5
		c-0.7-1.8-1.4-3.5-2-5.4C1293.6,370.2,1294.7,370.5,1295.9,370.6L1295.9,370.6L1295.9,370.6z M1290,367.8c0.9,3.2,1.9,6.4,3.2,9.4
		v0.1c-4.5-3.4-8.4-8-11.2-13.7c0.1-1,0.2-2,0.3-3c0.1-1.3-1.8-3-2.1-1c-0.1-0.3-0.2-0.6-0.3-0.9c-0.9-2.7-2.3-0.5-1.5,1.5l0,0
		c0.4,1.2,0.9,2.4,1.4,3.6c-0.4,1.5-0.9,3-2,4.2c-0.3,0.4-0.7,0.8-1.1,1.1l-0.2-0.4c0.8-2.8,1-5.8,0.9-8.8c0-1.3-2.1-3.1-2.1-0.9
		c0.1,2,0,4.1-0.4,6.1c-0.8-1.4-1.8,0.6-1.3,2.3l0,0c0.1,0.3,0.2,0.6,0.3,0.9c-0.3,0.6-0.6,1.2-1,1.8c0.3-1.5,0.4-3.1,0.3-4.7
		c-0.2-3.6-1.3-7.1-2.6-10.5c-0.7-1.8-2.5-1.2-1.8,0.6c1.1,2.8,2.2,5.7,2.3,8.8c0.2,2.3-0.3,4.7-0.9,6.9c-2.2-3-4-6.3-5.5-9.8
		c-1.8-4.6-2.5-9.4-3.4-14.1c4.2-0.2,7-2.9,8.6-6.4c0.1,0.7,0.3,1.5,0.6,1.8c4.3,4.4,12,7,16.6,2c0.1,2.9,0.2,5.8,0.4,8.6
		c-0.6,0.1-1.5,1.1-1.5,2C1285.7,359.7,1287,364.8,1290,367.8L1290,367.8L1290,367.8z M1313.5,367.5c0.2,0.9,0.4,1.8,0.6,2.7
		l-0.2,0.1c-0.4-0.4-0.8-0.8-1.1-1.2c-0.2-0.2-0.4-0.5-0.5-0.7C1312.7,368.2,1313.1,367.9,1313.5,367.5L1313.5,367.5L1313.5,367.5z
		 M1309.9,369.8c0.2,0.4,0.5,0.8,0.7,1.2c0.1,0.1,0.2,0.3,0.3,0.4c-1.6,0.4-3.3,0.7-5,0.6c0.1-0.3,0.2-0.6,0.3-0.9
		C1307.5,370.8,1308.8,370.4,1309.9,369.8L1309.9,369.8L1309.9,369.8z M1313.1,373.7c1.2,1,2.6,1.9,4,2.7c-3.6,4-7.9,7.4-12.6,9.8
		c0.2-0.3,0.4-0.6,0.6-0.9l0,0c0.9-1.4-0.2-3.3-1.4-1.4c-0.7,1.2-1.6,2.3-2.4,3.4c-1.5-2.1-2.8-4.3-4-6.6c2.6-1.2,5.2-2.9,7.1-5.5
		l0,0C1307.3,375.5,1310.5,374.9,1313.1,373.7L1313.1,373.7L1313.1,373.7z M1284.6,393.4c-1.6-2.1-2.2-4.9-2.3-7.8
		c0.7,0.5,1.5,0.9,2.2,1.3c-0.1,0.6-0.1,1.1-0.2,1.7C1284.2,390.3,1284.4,391.9,1284.6,393.4L1284.6,393.4z M1285,384.3
		c-0.9-0.5-1.9-1.1-2.7-1.6v-0.4c0-1.4-0.8-1.2-1.4-0.6c-2.7-1.9-5.2-4.2-7.5-6.7c1-0.6,2-1.2,3-1.9c2.5,4,5.7,6.9,9.4,8.3
		C1285.5,382.5,1285.2,383.4,1285,384.3L1285,384.3L1285,384.3z M1287.1,377.9c-3.4-0.8-6.4-3-8.8-6.3c0.6-0.6,1.1-1.2,1.5-1.9
		c0.6-0.9,1.1-1.9,1.4-2.9c2,3.9,4.5,7.4,7.3,10.4C1288.1,377,1287.5,377.1,1287.1,377.9L1287.1,377.9L1287.1,377.9z M1288.7,377.5
		c0.3,0.3,0.5,0.5,0.8,0.8c-0.2,0-0.4,0-0.7-0.1C1288.9,377.9,1288.8,377.6,1288.7,377.5L1288.7,377.5L1288.7,377.5z M1286.8,337.2
		c-4.2-3-7.3-8-8.4-14.2c-0.5-2.4-2.3-1.9-1.8,0.5c1.2,6.6,4,12.3,8.1,16.1c-4.8-0.4-9.2-3.4-12.4-8.4c-0.4-0.6-0.7-0.6-0.9-0.2
		c-0.5-1.1-2-2-1.9-0.2c0.4,4.7-1.3,9.9-5,12.2c2.5-3.8,2.9-8.8,2.8-13.5c0-1.3-2.1-3.1-2.1-0.9c0.1,3.8-0.2,8-2,11.3
		c0.5-3.6-0.1-7.4-1.2-10.9c-0.6-1.9-2.3-1.2-1.8,0.6c1.3,4,1.7,8.4-0.1,12.1c-2.9-9.1-8.9-16.6-12.9-25.2c-1.3-2.7-2.3-5.5-3.2-8.3
		c6.7-0.4,11-9.4,12-15.5c0.2-1.2-1.7-3.6-2-1.7c-0.7,4.5-3.5,11-7.9,13.3c2.2-3.6,3.5-7.8,4.8-11.9c0.3-1.1-1.4-3.8-1.8-2.3
		c-0.9,3.2-1.9,6.4-3.4,9.3c0.9-2.9,1.6-5.9,2.2-8.9c0.3-1.2-1.6-3.6-2-1.7c-0.9,4.5-2.1,8.9-3.6,13.1c-1.3-6.4-1.5-13-0.8-19.8
		c0.4-3.3,1-6.7,1.7-9.9c5,4.5,11.7,2,16.1-2.4c0,0,0-0.1,0.1-0.1c1,7.1,4,13.4,8.4,17.2c-3.3-1.4-6.5-4.2-8.8-7
		c-1.4-1.7-1.7,2.2-0.8,3.3c4.1,5.1,11,10.5,16.9,8.3c0.1,0.9,0.3,1.8,0.4,2.7c1.3,7.5,3.3,14.7,5.6,21.8
		C1283.4,322.8,1285.9,329.6,1286.8,337.2L1286.8,337.2L1286.8,337.2z M1281.7,343c-3.8,0.6-8-1.5-10.8-4.2
		c-0.1-0.1-0.1-0.1-0.2-0.1c0.4-1.3,0.6-2.6,0.7-4C1274.2,338.9,1277.8,341.7,1281.7,343z"/>
</g>
<path class="st3" d="M1379.1,36.7c2.3,1.1,4.8,2,6.8,3.6c1.4,1.1,2.5,2.6,3.9,3.7c3.5,3,8.2,4.2,12.8,5.1c0.3-0.4,0.2-0.9-0.1-1.3
	c-0.3-0.4-0.7-0.6-1.1-0.9c-1.5-1-2.7-2.7-3.1-4.5c-0.4-1.6-0.3-3.2-0.4-4.8l0,0c0.3,0.2,0.7,0.4,1,0.5c1.4,0.6,3,0.7,4.5,0.8
	c1.6,0.1,3.1,0.2,4.7,0.4c0.2,0,0.3,0,0.4,0c0.4-0.2,0.3-0.7,0.2-1.2c-0.7-2.2-1.3-4.4-1.4-6.7s0.6-4.7,2.2-6.3
	c0.2-0.2,0.5-0.6,0.2-0.8c-2.4-0.4-4.9,0.1-7,1.3c-2,1.2-3.6,3-5.4,4.5c0.2-3.2,1.2-6.4,2.8-9.2c0.4-0.6,2.1-3,1-3.2
	c-0.8-0.1-2.8,1.9-3.5,2.3c-2.8,1.5-5.9,2.2-8.7,3.7c-2.6,1.5-4.8,3.8-6.2,6.5c-0.9,1.7-1.5,3.6-3.1,4.7c-0.5,0.3-1.3,0.9-0.9,1.4
	C1378.7,36.5,1378.9,36.6,1379.1,36.7L1379.1,36.7z"/>
<path class="st4" d="M598.7,177.2c-4,1.9-8.2,3.4-11.6,6.1c-2.4,1.9-4.3,4.4-6.6,6.4c-6,5.2-14.1,7.1-21.9,8.7
	c-0.5-0.6-0.3-1.6,0.2-2.3s1.2-1,1.9-1.5c2.7-1.8,4.6-4.6,5.4-7.7c0.7-2.7,0.5-5.4,0.7-8.2c0,0,0,0,0-0.1c-0.6,0.3-1.1,0.6-1.8,0.8
	c-2.4,1-5.1,1.2-7.7,1.4c-2.7,0.2-5.4,0.4-8,0.6c-0.3,0-0.5,0-0.8-0.1c-0.7-0.3-0.6-1.3-0.4-2c1.1-3.8,2.3-7.6,2.4-11.5
	c0.1-3.9-0.9-8-3.7-10.8c-0.4-0.4-0.8-1.1-0.4-1.4c4.1-0.6,8.4,0.2,12,2.3c3.5,2,6.2,5.1,9.3,7.7c-0.4-5.5-2-10.9-4.8-15.7
	c-0.6-1.1-3.6-5.1-1.7-5.4c1.4-0.2,4.8,3.2,6.1,3.9c4.8,2.5,10.2,3.7,14.9,6.4c4.5,2.6,8.3,6.5,10.6,11.1c1.5,2.9,2.6,6.2,5.3,8
	c0.9,0.6,2.2,1.5,1.6,2.5C599.3,176.9,599,177.1,598.7,177.2L598.7,177.2z"/>
<path class="st5" d="M519.1,148.5c-2.4,1.1-5,2.1-7.1,3.7c-1.5,1.2-2.6,2.7-4,3.9c-3.6,3.2-8.6,4.3-13.3,5.3c-0.3-0.4-0.2-1,0.1-1.4
	s0.7-0.6,1.2-0.9c1.6-1.1,2.8-2.8,3.3-4.7c0.4-1.6,0.3-3.3,0.4-5l0,0c-0.3,0.2-0.7,0.4-1.1,0.5c-1.5,0.6-3.1,0.7-4.7,0.8
	c-1.6,0.1-3.3,0.3-4.9,0.4c-0.2,0-0.3,0-0.5,0c-0.4-0.2-0.3-0.8-0.2-1.2c0.7-2.3,1.4-4.6,1.5-7s-0.6-4.9-2.3-6.6
	c-0.2-0.2-0.5-0.6-0.2-0.8c2.5-0.4,5.1,0.1,7.3,1.4c2.1,1.2,3.8,3.1,5.6,4.7c-0.2-3.3-1.2-6.6-2.9-9.5c-0.4-0.6-2.2-3.1-1-3.3
	c0.8-0.1,2.9,1.9,3.7,2.4c2.9,1.5,6.2,2.2,9.1,3.9c2.7,1.6,5,3.9,6.4,6.8c0.9,1.8,1.6,3.8,3.2,4.9c0.6,0.4,1.3,0.9,1,1.5
	C519.5,148.3,519.3,148.4,519.1,148.5L519.1,148.5z"/>
<path class="st3" d="M365.7,185.4c-2.1,1-4.3,1.8-6.1,3.2c-1.3,1-2.3,2.3-3.5,3.4c-3.2,2.8-7.5,3.8-11.6,4.6
	c-0.3-0.3-0.2-0.9,0.1-1.2c0.3-0.3,0.6-0.6,1-0.8c1.4-0.9,2.4-2.4,2.8-4.1c0.3-1.4,0.3-2.9,0.3-4.3l0,0c-0.3,0.2-0.6,0.3-0.9,0.4
	c-1.3,0.5-2.7,0.6-4.1,0.7c-1.4,0.1-2.8,0.2-4.3,0.3c-0.1,0-0.3,0-0.4,0c-0.4-0.2-0.3-0.7-0.2-1.1c0.6-2,1.2-4,1.3-6.1
	c0.1-2.1-0.5-4.3-2-5.7c-0.2-0.2-0.4-0.6-0.2-0.7c2.2-0.3,4.4,0.1,6.3,1.2c1.9,1.1,3.3,2.7,4.9,4.1c-0.2-2.9-1.1-5.8-2.6-8.3
	c-0.3-0.6-1.9-2.7-0.9-2.9c0.7-0.1,2.5,1.7,3.2,2c2.5,1.3,5.4,1.9,7.9,3.4c2.4,1.4,4.4,3.4,5.6,5.9c0.8,1.5,1.3,3.3,2.8,4.2
	c0.5,0.3,1.1,0.8,0.8,1.3C366.1,185.3,365.9,185.4,365.7,185.4L365.7,185.4z"/>
<path class="st6" d="M453.5,72c-0.2-0.1-0.4-0.2-0.6-0.4c-0.3,0.8-0.8,1.7-1.1,2c-0.9,1.1-2.1,1.9-2.7,3.2c-0.5,1.2-0.5,2.6-0.5,3.9
	c0,3-0.6,6-1.2,8.9c-0.5,2.6-1,5.1-1.5,7.7c-0.1,0.5-0.5,1.1-0.9,0.8c-0.1-0.1-0.2-0.3-0.2-0.5c-0.2-1.2,0.1-2.5,0.4-3.7
	c1.1-4.9,1.8-9.9,1.9-15c0.1-1.8,0.1-3.7,1.2-5.2c0.6-0.7,1.3-1.2,2-1.9c0.3-0.3,0.7-1,1.2-1.5c-0.1-0.1-0.2-0.1-0.3-0.2
	c-1.1-0.6-2.3-0.5-3.5-0.3c-0.3,1.2-1.2,2.9-1.5,3.5c-1.2,2.9-2.6,5.9-2.6,9.1c0,1.2,0.2,2.3,0.3,3.5c0,2.5-0.8,4.9-1.7,7.3
	c-0.9-2.3,0-4.8,0.1-7.2c0.1-3-1.1-6.2,0.5-8.7c0.6-0.9,1.5-1.6,2.1-2.6c0.7-1.1,0.8-2.4,1.1-3.6c0-0.2,0.2-0.6,0.4-1.2
	c-1,0.2-2,0.5-3,0.6c-0.3,2.7-2.5,6.5-2.8,8.3c-0.4,2-0.4,4-0.7,6c-0.3,1.8-1,3.5-1,5.3c0,1.2,0.2,2.4,0.1,3.6
	c-0.1,1.2-0.6,2.3-0.8,3.5s-0.2,2.5,0.1,3.7c0.1,0.6,0,1.5-0.5,1.3c-0.1,0-0.3-0.2-0.3-0.3c-0.7-1-0.4-2.4-0.1-3.6
	c0.5-2.1,0.7-4.4,0.5-6.6c-0.1-1.1-0.3-2.2-0.1-3.3c0.2-1.6,1.1-3,1.6-4.6c0.6-2.2,0.2-4.7,1-6.9c0.5-1.5,1.6-2.8,2.1-4.4
	c0.2-0.7,0.2-1.5,0.3-2.2c-0.2,0-0.4-0.1-0.6-0.1c-0.8-0.2-1.6-0.8-2.4-1.2c0.1,1.4-0.3,2.8-0.8,4.1c-0.7,1.7-1.6,3.3-2,5.1
	c-0.5,2.2-0.3,4.6-0.9,6.8c-0.4,1.5-1.2,2.9-1.3,4.4c-0.2,1.6,0.3,3.4-0.6,4.8c-0.7-0.5-0.8-1.4-0.7-2.2c0.1-0.8,0.5-1.5,0.7-2.3
	c0.3-1.6-0.2-3.2,0.2-4.8c0.3-1.1,1-2.1,1.1-3.3c0.1-1-0.3-2.1-0.3-3.1c0-1.1,0.5-2.2,1-3.2c1-2.2,1.7-4.5,2.2-6.9v-0.1
	c-0.4-0.1-0.8-0.2-1.3-0.1c-0.8,0.1-1.5,0.6-2.2,0.8c-0.8,0.2-1.8,0.1-2.1-0.6c-0.3-0.8,0.3-1.6,0.8-2.3c0.9-1.5,1-3.4,1.6-5.1
	c1.6-5,7.1-8,12.3-7.7c2.6,0.2,5.3,1.1,6.9,3.2c0.8,1.1,1.3,2.5,1.7,3.8l1.5,4.7c0.3,1,0.6,2.1,0.6,3.1
	C457.6,70.6,455.5,73.1,453.5,72L453.5,72z"/>
<path class="st3" d="M1124.7,82.6c0.3-0.1,0.5-0.3,0.8-0.5c0.4,1.1,1.1,2.2,1.4,2.5c1.1,1.4,2.7,2.5,3.4,4.1c0.7,1.5,0.6,3.3,0.6,5
	c0,3.9,0.8,7.7,1.5,11.5c0.7,3.3,1.3,6.6,2,9.9c0.1,0.6,0.6,1.4,1.1,1c0.2-0.1,0.3-0.4,0.3-0.6c0.3-1.6-0.1-3.2-0.5-4.8
	c-1.5-6.3-2.3-12.8-2.5-19.3c-0.1-2.3-0.1-4.8-1.5-6.7c-0.7-0.9-1.7-1.6-2.6-2.4c-0.4-0.4-0.9-1.3-1.5-1.9c0.1-0.1,0.2-0.2,0.4-0.3
	c1.4-0.8,2.9-0.7,4.5-0.4c0.4,1.6,1.5,3.7,1.9,4.5c1.5,3.8,3.4,7.6,3.3,11.7c0,1.5-0.3,3-0.3,4.5c-0.1,3.2,1.1,6.4,2.1,9.4
	c1.1-2.9,0-6.1-0.1-9.2c-0.1-3.8,1.4-8-0.6-11.2c-0.8-1.2-1.9-2.1-2.7-3.3c-0.8-1.4-1-3-1.4-4.6c-0.1-0.2-0.2-0.8-0.5-1.5
	c1.3,0.3,2.6,0.7,3.9,0.7c0.4,3.5,3.2,8.3,3.7,10.7c0.5,2.5,0.5,5.1,0.9,7.7c0.4,2.3,1.3,4.5,1.3,6.9c0.1,1.6-0.2,3.1-0.1,4.7
	c0.2,1.5,0.8,3,1.1,4.5c0.3,1.6,0.3,3.2-0.1,4.8c-0.2,0.7,0,1.9,0.7,1.7c0.2,0,0.3-0.2,0.4-0.4c1-1.3,0.5-3.1,0.1-4.7
	c-0.7-2.8-0.9-5.6-0.6-8.4c0.1-1.4,0.4-2.8,0.2-4.2c-0.3-2.1-1.4-3.9-2-5.9c-0.8-2.9-0.3-6-1.3-8.8c-0.7-2-2.1-3.6-2.7-5.6
	c-0.3-0.9-0.3-1.9-0.4-2.9c0.3,0,0.5-0.1,0.8-0.2c1.1-0.3,2.1-1,3.1-1.5c-0.1,1.8,0.4,3.6,1,5.3c0.9,2.2,2.1,4.3,2.6,6.6
	c0.7,2.9,0.4,5.9,1.1,8.8c0.5,1.9,1.5,3.7,1.7,5.7c0.2,2.1-0.4,4.4,0.8,6.2c0.8-0.6,1-1.8,0.8-2.8c-0.2-1-0.7-2-0.9-3
	c-0.4-2,0.3-4.2-0.2-6.2c-0.4-1.5-1.3-2.7-1.5-4.2c-0.1-1.3,0.4-2.7,0.4-4c0-1.5-0.7-2.8-1.3-4.1c-1.3-2.8-2.2-5.8-2.9-8.8v-0.1
	c0.5-0.2,1.1-0.2,1.6-0.1c1,0.1,1.9,0.7,2.9,1s2.3,0.1,2.7-0.8c0.4-1-0.4-2-1-3c-1.2-1.9-1.3-4.3-2-6.5c-2-6.4-9.2-10.3-15.9-9.9
	c-3.4,0.2-6.8,1.5-8.8,4.2c-1.1,1.5-1.6,3.2-2.2,4.9c-0.6,2-1.3,4.1-1.9,6.1c-0.4,1.3-0.8,2.6-0.7,4
	C1119.5,80.7,1122.2,84,1124.7,82.6L1124.7,82.6z"/>
<path class="st6" d="M1321.3,93.1c1.9,0.9,3.9,1.6,5.5,2.9c1.1,0.9,2,2.1,3.1,3c2.8,2.5,6.7,3.4,10.3,4.1c0.2-0.3,0.1-0.8-0.1-1.1
	c-0.2-0.3-0.6-0.5-0.9-0.7c-1.3-0.8-2.2-2.2-2.5-3.6c-0.3-1.3-0.2-2.6-0.3-3.9l0,0c0.3,0.1,0.5,0.3,0.8,0.4c1.2,0.5,2.4,0.6,3.7,0.7
	c1.3,0.1,2.5,0.2,3.8,0.3c0.1,0,0.3,0,0.4,0c0.3-0.1,0.3-0.6,0.2-0.9c-0.5-1.8-1.1-3.6-1.1-5.4c-0.1-1.9,0.4-3.8,1.8-5.1
	c0.2-0.2,0.4-0.5,0.2-0.7c-1.9-0.3-4,0.1-5.7,1.1s-2.9,2.4-4.4,3.6c0.2-2.6,1-5.2,2.3-7.4c0.3-0.5,1.7-2.4,0.8-2.6
	c-0.6-0.1-2.3,1.5-2.9,1.8c-2.3,1.2-4.8,1.7-7,3c-2.1,1.2-3.9,3.1-5,5.3c-0.7,1.4-1.2,3-2.5,3.8c-0.4,0.3-1,0.7-0.7,1.2
	C1321,93,1321.2,93.1,1321.3,93.1L1321.3,93.1z"/>
<path class="st3" d="M1077.9,186.8c3.1,1.5,6.4,2.7,9.1,4.8c1.9,1.5,3.4,3.4,5.2,5c4.7,4.1,11.1,5.6,17.2,6.9
	c0.4-0.5,0.2-1.3-0.2-1.8c-0.4-0.5-1-0.8-1.5-1.2c-2.1-1.4-3.6-3.6-4.2-6.1c-0.5-2.1-0.4-4.3-0.5-6.4l0,0c0.4,0.2,0.9,0.5,1.4,0.7
	c1.9,0.8,4,0.9,6.1,1.1s4.2,0.3,6.3,0.5c0.2,0,0.4,0,0.6-0.1c0.5-0.2,0.5-1,0.3-1.6c-0.9-3-1.8-5.9-1.9-9c-0.1-3.1,0.7-6.3,2.9-8.5
	c0.3-0.3,0.6-0.8,0.3-1.1c-3.2-0.5-6.6,0.2-9.4,1.8c-2.8,1.6-4.9,4-7.3,6.1c0.3-4.3,1.6-8.6,3.8-12.4c0.5-0.8,2.8-4,1.3-4.3
	c-1.1-0.2-3.8,2.5-4.8,3c-3.8,2-8,2.9-11.7,5c-3.6,2-6.5,5.1-8.3,8.7c-1.2,2.3-2,4.9-4.1,6.3c-0.7,0.5-1.7,1.2-1.2,1.9
	C1077.4,186.6,1077.6,186.7,1077.9,186.8L1077.9,186.8z"/>
<path class="st2" d="M1411.6,135.5c-2.5-14.6-2.8-20.8,10-39.6c4.1-5.9,4.2-12.4,4.3-14.4c0.1-2-0.6-4-2.1-5.1
	c-2.2-1.6-5.2-0.6-7.5,0.7c-2.8,1.5-5.8,3.4-7.6,6.1c-2.6,3.4-5.8,10.5-6.8,16.6c-2.8,17,5.6,32.8,10.2,38.5L1411.6,135.5
	L1411.6,135.5L1411.6,135.5z"/>
<path class="st2" d="M1419.8,159.8l-1.3-3c-1.2-6.6,1.6-11.8,2.2-15.4c1.1-5,4.9-8.9,6.9-13.7c2.9-6.8,2-15.6,7.2-20.4
	c1.1-1.1,2.8-1.7,3.9-0.8c0.4,0.3,0.7,0.8,0.9,1.3c1.5,4.1,0.8,8.8-0.5,12.9c-2,6-5,11.3-9.2,15.9c-2.4,2.6-5.2,5-6.9,8.2
	C1420.9,148.5,1418.5,151.9,1419.8,159.8L1419.8,159.8L1419.8,159.8z"/>
<path class="st2" d="M1517.4,63.8c-2.7-15.6-3-22.1,10.7-42.1c4.3-6.3,4.5-13.2,4.6-15.3s-0.6-4.2-2.3-5.5c-2.4-1.7-5.5-0.7-8,0.8
	c-3,1.6-6.1,3.6-8.1,6.4c-2.7,3.6-6.2,11.2-7.2,17.7c-3,18,6,34.9,10.8,41L1517.4,63.8L1517.4,63.8L1517.4,63.8z"/>
<path class="st2" d="M1526,89.5l-1.3-3.2c-1.2-7,1.7-12.5,2.3-16.4c1.2-5.3,5.2-9.4,7.4-14.6c3.1-7.2,2.1-16.6,7.7-21.7
	c1.1-1.1,3-1.8,4.2-0.9c0.5,0.3,0.8,0.8,0.9,1.4c1.6,4.4,0.8,9.4-0.6,13.7c-2.1,6.4-5.4,12-9.8,16.9c-2.6,2.7-5.5,5.4-7.3,8.7
	C1527.2,77.5,1524.6,81.1,1526,89.5L1526,89.5L1526,89.5z"/>
</svg>
